<svg width="215" height="23" viewBox="0 0 215 23" fill="none" xmlns="http://www.w3.org/2000/svg">
<g clip-path="url(#clip0_10130_19192)">
<g clip-path="url(#clip1_10130_19192)">
<path d="M91.4402 21.4758H88.1331L90.4636 16.2156L85.8025 5.73975H89.1319L91.8475 12.3068C91.9428 12.5363 92.2682 12.5359 92.3624 12.3061L95.0575 5.73975H98.4091L91.4402 21.4758Z" fill="#FFFFFF"/>
<path d="M81.3934 16.8371V8.4031H79.1517V5.73971H81.3934V4.29706C81.3934 2.98017 81.7924 1.94441 82.5917 1.18979C83.391 0.435172 84.4044 0.0578613 85.6326 0.0578613C86.3869 0.0578613 87.0305 0.139242 87.5636 0.302003V2.98757C87.2084 2.8544 86.7941 2.78782 86.3202 2.78782C85.6549 2.78782 85.1739 2.93578 84.8778 3.23171C84.5817 3.51284 84.4337 3.99373 84.4337 4.67437V5.73971H87.5636V8.4031H84.4337V16.8371H81.3934Z" fill="#FFFFFF"/>
<path d="M76.4325 3.91974C75.9147 3.91974 75.4635 3.73479 75.0785 3.36488C74.6941 2.98017 74.5016 2.52148 74.5016 1.9888C74.5016 1.45613 74.6941 1.00484 75.0785 0.634923C75.4635 0.250216 75.9147 0.0578613 76.4325 0.0578613C76.9802 0.0578613 77.4384 0.250216 77.8087 0.634923C78.1932 1.00484 78.3857 1.45613 78.3857 1.9888C78.3857 2.52148 78.1932 2.98017 77.8087 3.36488C77.4384 3.73479 76.9802 3.91974 76.4325 3.91974ZM74.9235 16.8371V5.73971H77.9638V16.8371H74.9235Z" fill="#FFFFFF"/>
<path d="M69.6281 16.837V0.190918H72.669V16.837H69.6281Z" fill="#FFFFFF"/>
<path d="M66.1938 16.9702C64.951 16.9702 63.9299 16.6298 63.1306 15.9492C62.3466 15.2537 61.9545 14.255 61.9545 12.9529V8.40297H59.7129V5.73961H61.9545V2.65454H64.9949V5.73961H68.1247V8.40297H64.9949V12.3537C64.9949 13.0343 65.1429 13.5226 65.439 13.8185C65.735 14.0996 66.216 14.2402 66.8819 14.2402C67.3553 14.2402 67.7695 14.1736 68.1247 14.0405V16.726C67.5917 16.8888 66.948 16.9702 66.1938 16.9702Z" fill="#FFFFFF"/>
<path d="M48.3319 16.8369V5.73951H51.3726V6.55065C51.3726 6.68781 51.5593 6.74849 51.6501 6.64568C52.3279 5.87881 53.2934 5.49536 54.5464 5.49536C55.8781 5.49536 56.9213 5.93925 57.6759 6.82707C58.4453 7.70003 58.8299 8.86894 58.8299 10.3338V16.8369H55.7893V10.8443C55.7893 10.0305 55.6192 9.40164 55.2789 8.95776C54.9386 8.49908 54.4576 8.26971 53.8362 8.26971C53.0964 8.26971 52.4971 8.53606 52.0384 9.0687C51.5945 9.6014 51.3726 10.3856 51.3726 11.4213V16.8369H48.3319Z" fill="#FFFFFF"/>
<path d="M44.5472 3.91974C44.0293 3.91974 43.578 3.73479 43.1933 3.36488C42.8086 2.98017 42.6162 2.52148 42.6162 1.9888C42.6162 1.45613 42.8086 1.00484 43.1933 0.634923C43.578 0.250216 44.0293 0.0578613 44.5472 0.0578613C45.0946 0.0578613 45.5533 0.250216 45.9232 0.634923C46.308 1.00484 46.5003 1.45613 46.5003 1.9888C46.5003 2.52148 46.308 2.98017 45.9232 3.36488C45.5533 3.73479 45.0946 3.91974 44.5472 3.91974ZM43.0379 16.8371V5.73971H46.0786V16.8371H43.0379Z" fill="#FFFFFF"/>
<path d="M37.8749 16.8369V10.9109C37.8749 9.15009 37.2978 8.26971 36.1437 8.26971C35.4778 8.26971 34.9452 8.52126 34.5457 9.02435C34.1609 9.52739 33.9538 10.2747 33.9242 11.266V16.8369H30.8836V10.9109C30.8836 9.15009 30.3065 8.26971 29.1524 8.26971C28.4717 8.26971 27.9317 8.53606 27.5321 9.0687C27.1327 9.6014 26.9329 10.3856 26.9329 11.4213V16.8369H23.8922V5.73951H26.9329V6.55861C26.9329 6.69506 27.1163 6.75516 27.206 6.65229C27.8778 5.88103 28.7707 5.49536 29.8848 5.49536C31.3489 5.49536 32.4517 6.09981 33.193 7.30875C33.2515 7.40413 33.3954 7.4026 33.4536 7.30705C33.7741 6.78026 34.2195 6.36131 34.7898 6.05025C35.4409 5.68032 36.0993 5.49536 36.7652 5.49536C38.082 5.49536 39.103 5.93188 39.828 6.80484C40.5531 7.67785 40.9156 8.87637 40.9156 10.4004V16.8369H37.8749Z" fill="#FFFFFF"/>
<path d="M19.4027 7.36208V1.35027C19.4027 0.705146 18.8794 0.190918 18.2439 0.190918H12.2349C11.291 0.190918 10.3565 0.377903 9.48742 0.733186C8.61827 1.09782 7.82396 1.62141 7.16042 2.29458L7.11373 2.34133C6.23527 3.22954 5.60912 4.33278 5.29138 5.54823C5.86143 5.39864 6.45019 5.32384 7.03895 5.3145C8.60891 5.29579 10.1509 5.80067 11.4032 6.745C12.534 7.58647 13.3937 8.74579 13.861 10.0828C14.3469 11.4385 14.403 12.9157 14.0386 14.3088C15.2441 13.991 16.3562 13.3645 17.244 12.4856L17.2907 12.4389C17.9543 11.7751 18.4869 10.9803 18.8514 10.1108C19.2159 9.24134 19.3934 8.30636 19.3934 7.36208H19.4027Z" fill="#18E299"/>
<path d="M5.11193 7.26034C5.12124 5.4161 5.85673 3.64637 7.1508 2.32373L2.15129 7.32553C2.13267 7.34419 2.11404 7.3535 2.09543 7.3721C0.875804 8.58297 0.140324 10.2037 0.019293 11.9175C-0.0924279 13.5196 0.326517 15.103 1.22029 16.4257C1.30553 16.5519 1.53685 16.5933 1.6672 16.4723L4.73021 13.4171C5.68914 12.4578 5.98709 11.0327 5.53088 9.75657C5.24227 8.96489 5.10262 8.11727 5.11193 7.26034Z" fill="#0C8C5E"/>
<path d="M17.2623 12.4395C16.3034 13.3802 15.1024 14.0322 13.7989 14.321C12.4862 14.6097 11.127 14.5259 9.86083 14.0788C9.86083 14.0788 9.85146 14.0788 9.84216 14.0788C8.56669 13.6224 7.14225 13.9205 6.18334 14.8706L3.12027 17.9256C2.98993 18.0561 3.00855 18.2703 3.16682 18.3727C4.48885 19.2576 6.07158 19.6861 7.67291 19.5743C9.38599 19.4532 10.9966 18.7174 12.2162 17.4972L12.2628 17.4506L17.2623 12.4488V12.4395Z" fill="#0C8C5E"/>
</g>
</g>
<path d="M105.19 18.2671V2.97229H107.1V9.59319H115.168V2.97229H117.077V18.2671H115.168V11.2869H107.1V18.2671H105.19ZM124.561 18.5134C123.473 18.5134 122.535 18.2705 121.748 17.7846C120.968 17.2919 120.369 16.611 119.952 15.7419C119.534 14.866 119.326 13.8566 119.326 12.7137C119.326 11.5709 119.534 10.5581 119.952 9.67531C120.376 8.79253 120.968 8.10135 121.728 7.60179C122.487 7.10223 123.374 6.85245 124.386 6.85245C125.05 6.85245 125.68 6.96879 126.275 7.20146C126.877 7.42729 127.408 7.7763 127.866 8.24848C128.332 8.72067 128.694 9.31604 128.954 10.0346C129.221 10.7531 129.355 11.5983 129.355 12.57V13.227H120.445V11.6975H128.369L127.548 12.2518C127.548 11.5059 127.425 10.8489 127.178 10.2809C126.932 9.70611 126.573 9.26129 126.101 8.9465C125.628 8.62487 125.057 8.46405 124.386 8.46405C123.709 8.46405 123.127 8.62487 122.641 8.9465C122.155 9.26814 121.782 9.70269 121.522 10.2502C121.262 10.7908 121.132 11.3964 121.132 12.0671V12.9909C121.132 13.7984 121.273 14.4964 121.553 15.085C121.834 15.6666 122.231 16.1149 122.744 16.4297C123.257 16.7376 123.866 16.8916 124.571 16.8916C125.043 16.8916 125.468 16.8232 125.844 16.6863C126.227 16.5426 126.549 16.3339 126.809 16.0601C127.076 15.7864 127.274 15.4579 127.404 15.0747L129.17 15.3724C129.006 15.9951 128.711 16.5426 128.287 17.0148C127.863 17.487 127.332 17.8565 126.696 18.1234C126.06 18.3834 125.348 18.5134 124.561 18.5134ZM133.153 2.97229V18.2671H131.346V2.97229H133.153ZM135.73 22.5578V7.03722H137.475V8.78226H137.608C137.78 8.50169 138.005 8.21427 138.286 7.92001C138.567 7.62574 138.926 7.37938 139.364 7.18093C139.802 6.97563 140.339 6.87298 140.975 6.87298C141.927 6.87298 142.761 7.11249 143.48 7.59153C144.205 8.06371 144.77 8.73436 145.174 9.60346C145.577 10.4726 145.779 11.4956 145.779 12.6727C145.779 13.8497 145.577 14.8762 145.174 15.7522C144.77 16.6213 144.209 17.2953 143.49 17.7744C142.772 18.2534 141.937 18.4929 140.986 18.4929C140.363 18.4929 139.833 18.3937 139.395 18.1952C138.963 17.9899 138.604 17.7367 138.317 17.4356C138.036 17.1345 137.807 16.8368 137.629 16.5426H137.537V22.5578H135.73ZM140.708 16.8813C141.393 16.8813 141.974 16.7034 142.454 16.3475C142.939 15.9917 143.309 15.4955 143.562 14.8591C143.815 14.2227 143.942 13.4905 143.942 12.6624C143.942 11.8275 143.815 11.0987 143.562 10.476C143.309 9.85324 142.943 9.36737 142.464 9.01836C141.985 8.6625 141.4 8.48458 140.708 8.48458C140.017 8.48458 139.429 8.65908 138.943 9.00809C138.464 9.3571 138.098 9.84298 137.845 10.4657C137.591 11.0885 137.465 11.8207 137.465 12.6624C137.465 13.4973 137.591 14.233 137.845 14.8694C138.098 15.499 138.467 15.9917 138.953 16.3475C139.439 16.7034 140.024 16.8813 140.708 16.8813ZM159.576 18.4929C158.235 18.4929 157.044 18.1679 156.004 17.5177C154.964 16.8676 154.15 15.9541 153.561 14.777C152.979 13.5931 152.689 12.2108 152.689 10.63C152.689 9.03546 152.979 7.64969 153.561 6.47265C154.15 5.2956 154.964 4.38201 156.004 3.7319C157.044 3.07494 158.235 2.74646 159.576 2.74646C160.363 2.74646 161.102 2.8628 161.794 3.09547C162.492 3.32814 163.114 3.66689 163.662 4.1117C164.216 4.54968 164.675 5.08345 165.037 5.71304C165.407 6.33578 165.663 7.04406 165.807 7.83789H163.877C163.761 7.30411 163.569 6.83192 163.302 6.42132C163.042 6.01072 162.721 5.66513 162.338 5.38456C161.954 5.09714 161.53 4.88158 161.065 4.73787C160.599 4.59416 160.103 4.5223 159.576 4.5223C158.598 4.5223 157.732 4.76866 156.979 5.26138C156.226 5.74725 155.635 6.44527 155.203 7.35543C154.779 8.26559 154.567 9.3571 154.567 10.63C154.567 11.896 154.779 12.9841 155.203 13.8942C155.635 14.8044 156.226 15.5024 156.979 15.9883C157.739 16.4741 158.605 16.7171 159.576 16.7171C160.103 16.7171 160.599 16.6452 161.065 16.5015C161.53 16.3578 161.951 16.1457 162.327 15.8651C162.711 15.5845 163.036 15.2389 163.302 14.8283C163.569 14.4177 163.761 13.9455 163.877 13.4118H165.807C165.67 14.1919 165.417 14.8968 165.048 15.5263C164.678 16.1491 164.216 16.6829 163.662 17.1277C163.114 17.5657 162.495 17.9044 161.804 18.1439C161.113 18.3766 160.37 18.4929 159.576 18.4929ZM172.613 18.5134C171.525 18.5134 170.588 18.2705 169.801 17.7846C169.02 17.2919 168.422 16.611 168.004 15.7419C167.587 14.866 167.378 13.8566 167.378 12.7137C167.378 11.5709 167.587 10.5581 168.004 9.67531C168.429 8.79253 169.02 8.10135 169.78 7.60179C170.54 7.10223 171.426 6.85245 172.439 6.85245C173.103 6.85245 173.732 6.96879 174.327 7.20146C174.93 7.42729 175.46 7.7763 175.919 8.24848C176.384 8.72067 176.747 9.31604 177.007 10.0346C177.274 10.7531 177.407 11.5983 177.407 12.57V13.227H168.497V11.6975H176.422L175.6 12.2518C175.6 11.5059 175.477 10.8489 175.231 10.2809C174.984 9.70611 174.625 9.26129 174.153 8.9465C173.681 8.62487 173.109 8.46405 172.439 8.46405C171.761 8.46405 171.18 8.62487 170.694 8.9465C170.208 9.26814 169.835 9.70269 169.575 10.2502C169.315 10.7908 169.185 11.3964 169.185 12.0671V12.9909C169.185 13.7984 169.325 14.4964 169.606 15.085C169.886 15.6666 170.283 16.1149 170.796 16.4297C171.31 16.7376 171.919 16.8916 172.623 16.8916C173.096 16.8916 173.52 16.8232 173.896 16.6863C174.28 16.5426 174.601 16.3339 174.861 16.0601C175.128 15.7864 175.327 15.4579 175.457 15.0747L177.222 15.3724C177.058 15.9951 176.764 16.5426 176.339 17.0148C175.915 17.487 175.385 17.8565 174.748 18.1234C174.112 18.3834 173.4 18.5134 172.613 18.5134ZM181.205 11.5949V18.2671H179.399V7.03722H181.144V9.75743H180.795C181.151 8.73094 181.647 7.99528 182.283 7.55047C182.926 7.09881 183.679 6.87298 184.542 6.87298C185.301 6.87298 185.975 7.0338 186.564 7.35543C187.152 7.67022 187.614 8.14583 187.949 8.78226C188.292 9.41869 188.463 10.2228 188.463 11.1945V18.2671H186.656V11.3382C186.656 10.4349 186.427 9.74033 185.968 9.25445C185.517 8.76173 184.887 8.51537 184.08 8.51537C183.539 8.51537 183.05 8.62829 182.612 8.85412C182.181 9.07995 181.838 9.42211 181.585 9.88061C181.332 10.3391 181.205 10.9105 181.205 11.5949ZM195.649 7.03722V8.58723H189.736V7.03722H195.649ZM191.543 4.22462H193.349V15.4237C193.349 15.9027 193.445 16.2483 193.637 16.4605C193.835 16.6658 194.17 16.7684 194.643 16.7684C194.773 16.7684 194.927 16.7616 195.105 16.7479C195.289 16.7273 195.457 16.7102 195.608 16.6966L195.844 18.226C195.652 18.2671 195.44 18.2979 195.207 18.3184C194.981 18.3458 194.759 18.3595 194.54 18.3595C193.575 18.3595 192.833 18.12 192.312 17.6409C191.799 17.1619 191.543 16.4776 191.543 15.5879V4.22462ZM201.859 18.5134C200.771 18.5134 199.834 18.2705 199.047 17.7846C198.267 17.2919 197.668 16.611 197.25 15.7419C196.833 14.866 196.624 13.8566 196.624 12.7137C196.624 11.5709 196.833 10.5581 197.25 9.67531C197.675 8.79253 198.267 8.10135 199.026 7.60179C199.786 7.10223 200.672 6.85245 201.685 6.85245C202.349 6.85245 202.978 6.96879 203.574 7.20146C204.176 7.42729 204.706 7.7763 205.165 8.24848C205.63 8.72067 205.993 9.31604 206.253 10.0346C206.52 10.7531 206.653 11.5983 206.653 12.57V13.227H197.743V11.6975H205.668L204.846 12.2518C204.846 11.5059 204.723 10.8489 204.477 10.2809C204.231 9.70611 203.871 9.26129 203.399 8.9465C202.927 8.62487 202.355 8.46405 201.685 8.46405C201.007 8.46405 200.426 8.62487 199.94 8.9465C199.454 9.26814 199.081 9.70269 198.821 10.2502C198.561 10.7908 198.431 11.3964 198.431 12.0671V12.9909C198.431 13.7984 198.571 14.4964 198.852 15.085C199.132 15.6666 199.529 16.1149 200.042 16.4297C200.556 16.7376 201.165 16.8916 201.87 16.8916C202.342 16.8916 202.766 16.8232 203.142 16.6863C203.526 16.5426 203.847 16.3339 204.107 16.0601C204.374 15.7864 204.573 15.4579 204.703 15.0747L206.468 15.3724C206.304 15.9951 206.01 16.5426 205.586 17.0148C205.161 17.487 204.631 17.8565 203.994 18.1234C203.358 18.3834 202.646 18.5134 201.859 18.5134ZM208.645 18.2671V7.03722H210.38V8.78226H210.472C210.677 8.20742 211.03 7.7455 211.529 7.39649C212.029 7.04748 212.621 6.87298 213.305 6.87298C213.449 6.87298 213.603 6.87982 213.767 6.89351C213.938 6.90035 214.068 6.9072 214.157 6.91404V8.73094C214.096 8.71725 213.959 8.69672 213.747 8.66935C213.541 8.63513 213.315 8.61802 213.069 8.61802C212.576 8.61802 212.132 8.72409 211.735 8.93624C211.338 9.14838 211.023 9.45291 210.79 9.84982C210.564 10.2467 210.452 10.7258 210.452 11.2869V18.2671H208.645Z" fill="#A1A1AA"/>
<defs>
<clipPath id="clip0_10130_19192">
<rect width="98.4188" height="21.5342" fill="#FFFFFF"/>
</clipPath>
<clipPath id="clip1_10130_19192">
<rect width="98.4188" height="21.5328" fill="#FFFFFF" transform="translate(0 0.000488281)"/>
</clipPath>
</defs>
</svg>
