<svg width="145" height="18" viewBox="0 0 145 18" fill="none" xmlns="http://www.w3.org/2000/svg">
  <path d="M76.8455 18H74.0662L76.0248 13.5793L72.1077 4.77515H74.9056L77.1764 10.2659C77.2605 10.4692 77.5487 10.4688 77.6322 10.2653L79.8859 4.77515H82.7025L76.8455 18Z" fill="white"/>
  <path d="M68.4037 14.1015V7.01346H66.5198V4.77512H68.4037V3.56269C68.4037 2.45596 68.7395 1.58549 69.411 0.951294C70.0825 0.317098 70.9343 0 71.9664 0C72.6006 0 73.1415 0.0683936 73.5892 0.205181V2.46217C73.2908 2.35026 72.9426 2.2943 72.5446 2.2943C71.9851 2.2943 71.5809 2.41865 71.3322 2.66735C71.0835 2.90362 70.9591 3.30777 70.9591 3.87979V4.77512H73.5892V7.01346H70.9591V14.1015H68.4037Z" fill="white"/>
  <path d="M64.2336 3.24559C63.7984 3.24559 63.4191 3.09015 63.0958 2.77927C62.7725 2.45596 62.6108 2.07046 62.6108 1.6228C62.6108 1.17513 62.7725 0.795854 63.0958 0.484974C63.4191 0.161658 63.7984 0 64.2336 0C64.6937 0 65.0792 0.161658 65.3901 0.484974C65.7134 0.795854 65.8751 1.17513 65.8751 1.6228C65.8751 2.07046 65.7134 2.45596 65.3901 2.77927C65.0792 3.09015 64.6937 3.24559 64.2336 3.24559ZM62.9652 14.1015V4.77512H65.5207V14.1015H62.9652Z" fill="white"/>
  <path d="M58.5156 14.1014V0.111816H61.0711V14.1014H58.5156Z" fill="white"/>
  <path d="M55.6288 14.2134C54.5842 14.2134 53.7262 13.9274 53.0547 13.3554C52.3956 12.771 52.0661 11.9316 52.0661 10.8373V7.01346H50.1821V4.77512H52.0661V2.18237H54.6215V4.77512H57.2515V7.01346H54.6215V10.3337C54.6215 10.9057 54.7459 11.316 54.9946 11.5647C55.2433 11.801 55.6474 11.9191 56.207 11.9191C56.6049 11.9191 56.9531 11.8632 57.2515 11.7513V14.0083C56.8039 14.1451 56.2629 14.2134 55.6288 14.2134Z" fill="white"/>
  <path d="M40.6177 14.1017V4.77525H43.1731V5.43633C43.1731 5.55783 43.3389 5.61183 43.4201 5.52139C43.989 4.88718 44.7958 4.57007 45.8405 4.57007C46.9596 4.57007 47.8363 4.94313 48.4705 5.68924C49.1171 6.42292 49.4405 7.4053 49.4405 8.63638V14.1017H46.885V9.0654C46.885 8.38146 46.742 7.85297 46.456 7.47991C46.17 7.09442 45.7659 6.90167 45.2436 6.90167C44.6218 6.90167 44.1182 7.12551 43.7327 7.57317C43.3596 8.02084 43.1731 8.67991 43.1731 9.55037V14.1017H40.6177Z" fill="white"/>
  <path d="M37.4363 3.24559C37.001 3.24559 36.6218 3.09015 36.2985 2.77927C35.9751 2.45596 35.8135 2.07046 35.8135 1.6228C35.8135 1.17513 35.9751 0.795854 36.2985 0.484974C36.6218 0.161658 37.001 0 37.4363 0C37.8964 0 38.2819 0.161658 38.5927 0.484974C38.9161 0.795854 39.0777 1.17513 39.0777 1.6228C39.0777 2.07046 38.9161 2.45596 38.5927 2.77927C38.2819 3.09015 37.8964 3.24559 37.4363 3.24559ZM36.1679 14.1015V4.77512H38.7233V14.1015H36.1679Z" fill="white"/>
  <path d="M31.8297 14.1017V9.12136C31.8297 7.64157 31.3447 6.90167 30.3747 6.90167C29.8151 6.90167 29.3675 7.11307 29.0317 7.53587C28.7084 7.95867 28.5343 8.58664 28.5094 9.4198V14.1017H25.954V9.12136C25.954 7.64157 25.469 6.90167 24.4991 6.90167C23.9271 6.90167 23.4732 7.12551 23.1374 7.57317C22.8017 8.02084 22.6338 8.67991 22.6338 9.55037V14.1017H20.0784V4.77525H22.6338V5.4434C22.6338 5.56427 22.7967 5.61771 22.8767 5.52708C23.4397 4.88907 24.1857 4.57007 25.1146 4.57007C26.341 4.57007 27.2657 5.07469 27.8887 6.08392C27.9408 6.16825 28.0683 6.16687 28.1202 6.08241C28.3891 5.64448 28.7613 5.29581 29.2369 5.03639C29.7841 4.72551 30.3374 4.57007 30.897 4.57007C32.0037 4.57007 32.8618 4.93691 33.4711 5.67059C34.0804 6.40426 34.3851 7.41152 34.3851 8.69234V14.1017H31.8297Z" fill="white"/>
  <path d="M16.305 6.13856V1.08616C16.305 0.543984 15.8652 0.111816 15.3311 0.111816H10.281C9.48777 0.111816 8.70238 0.268962 7.97197 0.567549C7.24155 0.873994 6.57397 1.31402 6.01634 1.87977L5.97707 1.91906C5.2388 2.66552 4.71259 3.59271 4.44556 4.61419C4.92465 4.48847 5.41942 4.42561 5.91422 4.41775C7.23368 4.40204 8.5296 4.82635 9.58203 5.61996C10.5324 6.32715 11.2549 7.30148 11.6476 8.42511C12.056 9.56446 12.1031 10.806 11.7968 11.9767C12.81 11.7096 13.7446 11.1831 14.4907 10.4445L14.53 10.4052C15.0876 9.84733 15.5353 9.17944 15.8416 8.44869C16.1479 7.71793 16.2971 6.93218 16.2971 6.13856H16.305Z" fill="#18E299"/>
  <path d="M4.29481 6.05311C4.30264 4.50318 4.92076 3.01587 6.00834 1.9043L1.80665 6.1079C1.791 6.12356 1.77534 6.13139 1.7597 6.14704C0.734705 7.16468 0.116597 8.52675 0.0148805 9.96709C-0.0790116 11.3135 0.273076 12.6442 1.02421 13.7558C1.09586 13.8618 1.29026 13.8967 1.39981 13.795L3.97401 11.2274C4.77992 10.4211 5.0303 9.22343 4.64691 8.151C4.40436 7.48562 4.28699 6.77328 4.29481 6.05311Z" fill="#0C8C5E"/>
  <path d="M14.5056 10.4058C13.6997 11.1964 12.6904 11.7443 11.5949 11.987C10.4917 12.2297 9.34938 12.1592 8.28526 11.7835C8.28526 11.7835 8.27742 11.7835 8.2696 11.7835C7.19766 11.3999 6.00056 11.6504 5.19465 12.4489L2.62041 15.0164C2.51087 15.126 2.52651 15.3061 2.65953 15.3922C3.77059 16.1358 5.10076 16.4959 6.44654 16.402C7.88622 16.3002 9.23982 15.6818 10.2648 14.6563L10.3039 14.6172L14.5056 10.4136V10.4058Z" fill="#0C8C5E"/>
  <path d="M92.521 14.4434C91.5308 14.4434 90.6694 14.2852 89.937 13.9688C89.2104 13.6465 88.6421 13.1865 88.2319 12.5889C87.8276 11.9912 87.6079 11.2822 87.5728 10.4619H89.5679C89.603 10.9541 89.7524 11.3672 90.0161 11.7012C90.2798 12.0352 90.6284 12.2871 91.062 12.457C91.4956 12.627 91.979 12.7119 92.5122 12.7119C93.0747 12.7119 93.5728 12.624 94.0063 12.4482C94.4458 12.2725 94.7886 12.0264 95.0347 11.71C95.2866 11.3936 95.4126 11.0244 95.4126 10.6025C95.4126 10.2275 95.3071 9.91992 95.0962 9.67969C94.8911 9.43359 94.6011 9.22852 94.2261 9.06445C93.8569 8.89453 93.4233 8.74512 92.9253 8.61621L91.4048 8.2207C90.2798 7.92188 89.4155 7.49121 88.812 6.92871C88.2144 6.36621 87.9155 5.63379 87.9155 4.73145C87.9155 3.97559 88.1147 3.31348 88.5132 2.74512C88.9175 2.17676 89.4683 1.7373 90.1655 1.42676C90.8687 1.11035 91.6655 0.952148 92.5562 0.952148C93.4644 0.952148 94.2612 1.11328 94.9468 1.43555C95.6323 1.75195 96.1685 2.19141 96.5552 2.75391C96.9419 3.31055 97.147 3.95508 97.1704 4.6875H95.228C95.1694 4.05469 94.894 3.5625 94.4019 3.21094C93.9097 2.85938 93.2827 2.68359 92.521 2.68359C91.9937 2.68359 91.5337 2.76855 91.1411 2.93848C90.7485 3.10254 90.4438 3.33105 90.2271 3.62402C90.0103 3.91699 89.9019 4.25098 89.9019 4.62598C89.9019 5.01855 90.019 5.34082 90.2534 5.59277C90.4878 5.84473 90.7866 6.04688 91.1499 6.19922C91.519 6.35156 91.8999 6.48047 92.2925 6.58594L93.5933 6.91992C94.062 7.03711 94.522 7.18945 94.9731 7.37695C95.4243 7.56445 95.8315 7.80176 96.1948 8.08887C96.5581 8.37598 96.8452 8.72461 97.0562 9.13477C97.2729 9.54492 97.3813 10.0312 97.3813 10.5938C97.3813 11.3438 97.188 12.0088 96.8013 12.5889C96.4204 13.1689 95.8667 13.623 95.1401 13.9512C94.4136 14.2793 93.5405 14.4434 92.521 14.4434ZM103.402 4.5293V6.09375H98.0585V4.5293H103.402ZM99.535 2.14746H101.46V11.6221C101.46 12.0029 101.539 12.2812 101.697 12.457C101.855 12.6328 102.125 12.7207 102.506 12.7207C102.617 12.7207 102.755 12.7119 102.919 12.6943C103.083 12.6709 103.223 12.6504 103.341 12.6328L103.613 14.1797C103.414 14.2324 103.2 14.2705 102.972 14.2939C102.743 14.3174 102.517 14.3291 102.295 14.3291C101.41 14.3291 100.727 14.1123 100.247 13.6787C99.7723 13.2393 99.535 12.6123 99.535 11.7979V2.14746ZM107.744 14.4346C107.123 14.4346 106.564 14.3232 106.066 14.1006C105.568 13.8721 105.172 13.5381 104.879 13.0986C104.592 12.6592 104.448 12.1201 104.448 11.4814C104.448 10.9307 104.554 10.4795 104.765 10.1279C104.982 9.77051 105.269 9.48926 105.626 9.28418C105.984 9.0791 106.385 8.92383 106.83 8.81836C107.281 8.71289 107.741 8.63379 108.21 8.58105C108.79 8.51074 109.256 8.45215 109.608 8.40527C109.965 8.3584 110.226 8.28516 110.39 8.18555C110.56 8.08594 110.645 7.92188 110.645 7.69336V7.64062C110.645 7.2832 110.574 6.98145 110.434 6.73535C110.293 6.4834 110.082 6.29004 109.801 6.15527C109.52 6.02051 109.174 5.95312 108.764 5.95312C108.348 5.95312 107.988 6.02051 107.683 6.15527C107.378 6.28418 107.129 6.4541 106.936 6.66504C106.748 6.87012 106.616 7.08984 106.54 7.32422L104.721 6.96387C104.903 6.37207 105.19 5.88867 105.582 5.51367C105.981 5.13281 106.452 4.85156 106.997 4.66992C107.542 4.48242 108.125 4.38867 108.746 4.38867C109.18 4.38867 109.619 4.44141 110.065 4.54688C110.516 4.65234 110.929 4.83105 111.304 5.08301C111.685 5.33496 111.989 5.67773 112.218 6.11133C112.447 6.54492 112.561 7.08984 112.561 7.74609V14.2324H110.697V12.8965H110.618C110.489 13.1484 110.302 13.3916 110.056 13.626C109.81 13.8604 109.496 14.0537 109.115 14.2061C108.735 14.3584 108.278 14.4346 107.744 14.4346ZM108.166 12.8965C108.699 12.8965 109.151 12.7939 109.52 12.5889C109.889 12.3838 110.17 12.1143 110.363 11.7803C110.557 11.4463 110.654 11.0889 110.654 10.708V9.48633C110.589 9.55078 110.463 9.60938 110.276 9.66211C110.088 9.71484 109.874 9.76465 109.634 9.81152C109.394 9.85254 109.156 9.89062 108.922 9.92578C108.688 9.95508 108.483 9.98145 108.307 10.0049C107.955 10.0518 107.627 10.1309 107.322 10.2422C107.024 10.3477 106.783 10.5029 106.602 10.708C106.426 10.9072 106.338 11.1738 106.338 11.5078C106.338 11.8125 106.414 12.0674 106.567 12.2725C106.725 12.4775 106.942 12.6328 107.217 12.7383C107.492 12.8438 107.809 12.8965 108.166 12.8965ZM114.688 14.2324V4.5293H116.543V6.08496H116.63C116.812 5.55762 117.117 5.14453 117.545 4.8457C117.978 4.54688 118.485 4.39746 119.065 4.39746C119.194 4.39746 119.332 4.40332 119.478 4.41504C119.63 4.4209 119.756 4.42969 119.856 4.44141V6.26074C119.786 6.24316 119.651 6.22266 119.452 6.19922C119.258 6.17578 119.056 6.16406 118.845 6.16406C118.423 6.16406 118.043 6.25488 117.703 6.43652C117.363 6.61816 117.096 6.87598 116.903 7.20996C116.71 7.53809 116.613 7.9248 116.613 8.37012V14.2324H114.688ZM125.666 4.5293V6.09375H120.322V4.5293H125.666ZM121.799 2.14746H123.724V11.6221C123.724 12.0029 123.803 12.2812 123.961 12.457C124.119 12.6328 124.389 12.7207 124.769 12.7207C124.881 12.7207 125.018 12.7119 125.183 12.6943C125.347 12.6709 125.487 12.6504 125.604 12.6328L125.877 14.1797C125.678 14.2324 125.464 14.2705 125.235 14.2939C125.007 14.3174 124.781 14.3291 124.559 14.3291C123.674 14.3291 122.991 14.1123 122.511 13.6787C122.036 13.2393 121.799 12.6123 121.799 11.7979V2.14746ZM131.124 14.4346C130.163 14.4346 129.337 14.2266 128.646 13.8105C127.954 13.3945 127.421 12.8115 127.046 12.0615C126.677 11.3115 126.492 10.4355 126.492 9.43359C126.492 8.44336 126.677 7.57031 127.046 6.81445C127.415 6.05273 127.937 5.45801 128.611 5.03027C129.284 4.60254 130.07 4.38867 130.966 4.38867C131.552 4.38867 132.106 4.48535 132.627 4.67871C133.155 4.87207 133.62 5.1709 134.025 5.5752C134.435 5.97363 134.757 6.4834 134.992 7.10449C135.226 7.71973 135.343 8.45215 135.343 9.30176V9.95215H127.512V8.51074H134.35L133.471 8.97656C133.471 8.38477 133.374 7.86328 133.181 7.41211C132.993 6.95508 132.712 6.60059 132.337 6.34863C131.968 6.09668 131.514 5.9707 130.975 5.9707C130.436 5.9707 129.973 6.09961 129.586 6.35742C129.205 6.61523 128.912 6.95801 128.707 7.38574C128.502 7.81348 128.4 8.29102 128.4 8.81836V9.75879C128.4 10.4092 128.511 10.9658 128.734 11.4287C128.962 11.8916 129.282 12.2461 129.692 12.4922C130.108 12.7324 130.591 12.8525 131.142 12.8525C131.511 12.8525 131.845 12.7998 132.144 12.6943C132.443 12.583 132.698 12.4219 132.908 12.2109C133.119 12 133.278 11.7422 133.383 11.4375L135.194 11.7715C135.047 12.2988 134.786 12.7646 134.411 13.1689C134.036 13.5674 133.568 13.8779 133.005 14.1006C132.449 14.3232 131.822 14.4346 131.124 14.4346ZM136.987 14.2324V4.5293H138.841V6.08496H138.929C139.111 5.55762 139.416 5.14453 139.843 4.8457C140.277 4.54688 140.784 4.39746 141.364 4.39746C141.493 4.39746 141.631 4.40332 141.777 4.41504C141.929 4.4209 142.055 4.42969 142.155 4.44141V6.26074C142.085 6.24316 141.95 6.22266 141.751 6.19922C141.557 6.17578 141.355 6.16406 141.144 6.16406C140.722 6.16406 140.341 6.25488 140.002 6.43652C139.662 6.61816 139.395 6.87598 139.202 7.20996C139.008 7.53809 138.912 7.9248 138.912 8.37012V14.2324H136.987Z" fill="#78716C"/>
</svg>
