<svg xmlns="http://www.w3.org/2000/svg" version="1.1" viewBox="0 0 145 26">
  <rect x="0" width="145" height="26" fill="none"/>
  <path d="M76.85,22h-2.78l1.96-4.42-3.92-8.8h2.8l2.27,5.49c.08.2.37.2.46,0l2.25-5.49h2.82l-5.86,13.22Z" fill="#0c0a09"/>
  <path d="M68.4,18.1v-7.09h-1.88v-2.24h1.88v-1.21c0-1.11.34-1.98,1.01-2.61.67-.63,1.52-.95,2.56-.95.63,0,1.18.07,1.62.21v2.26c-.3-.11-.65-.17-1.04-.17-.56,0-.96.12-1.21.37-.25.24-.37.64-.37,1.21v.9h2.63v2.24h-2.63v7.09h-2.56Z" fill="#0c0a09"/>
  <path d="M64.23,7.25c-.44,0-.81-.16-1.14-.47-.32-.32-.48-.71-.48-1.16s.16-.83.48-1.14c.32-.32.7-.48,1.14-.48.46,0,.85.16,1.16.48.32.31.49.69.49,1.14s-.16.83-.49,1.16c-.31.31-.7.47-1.16.47ZM62.97,18.1v-9.33h2.56v9.33h-2.56Z" fill="#0c0a09"/>
  <path d="M58.52,18.1V4.11h2.56v13.99h-2.56Z" fill="#0c0a09"/>
  <path d="M55.63,18.21c-1.04,0-1.9-.29-2.57-.86-.66-.58-.99-1.42-.99-2.52v-3.82h-1.88v-2.24h1.88v-2.59h2.56v2.59h2.63v2.24h-2.63v3.32c0,.57.12.98.37,1.23.25.24.65.35,1.21.35.4,0,.75-.06,1.04-.17v2.26c-.45.14-.99.21-1.62.21Z" fill="#0c0a09"/>
  <path d="M40.62,18.1v-9.33h2.56v.66c0,.12.17.18.25.09.57-.63,1.38-.95,2.42-.95,1.12,0,2,.37,2.63,1.12.65.73.97,1.72.97,2.95v5.47h-2.56v-5.04c0-.68-.14-1.21-.43-1.59-.29-.39-.69-.58-1.21-.58-.62,0-1.13.22-1.51.67-.37.45-.56,1.11-.56,1.98v4.55h-2.56Z" fill="#0c0a09"/>
  <path d="M37.44,7.25c-.44,0-.81-.16-1.14-.47-.32-.32-.49-.71-.49-1.16s.16-.83.49-1.14c.32-.32.7-.48,1.14-.48.46,0,.85.16,1.16.48.32.31.49.69.49,1.14s-.16.83-.49,1.16c-.31.31-.7.47-1.16.47ZM36.17,18.1v-9.33h2.56v9.33h-2.56Z" fill="#0c0a09"/>
  <path d="M31.83,18.1v-4.98c0-1.48-.49-2.22-1.45-2.22-.56,0-1.01.21-1.34.63-.32.42-.5,1.05-.52,1.88v4.68h-2.56v-4.98c0-1.48-.49-2.22-1.45-2.22-.57,0-1.03.22-1.36.67-.34.45-.5,1.11-.5,1.98v4.55h-2.56v-9.33h2.56v.67c0,.12.16.17.24.08.56-.64,1.31-.96,2.24-.96,1.23,0,2.15.5,2.77,1.51.05.08.18.08.23,0,.27-.44.64-.79,1.12-1.05.55-.31,1.1-.47,1.66-.47,1.11,0,1.96.37,2.57,1.1.61.73.91,1.74.91,3.02v5.41h-2.56Z" fill="#0c0a09"/>
  <path d="M16.31,10.14v-5.05c0-.54-.44-.97-.97-.97h-5.05c-.79,0-1.58.16-2.31.46-.73.31-1.4.75-1.96,1.31l-.04.04c-.74.75-1.26,1.67-1.53,2.7.48-.13.97-.19,1.47-.2,1.32-.02,2.62.41,3.67,1.2.95.71,1.67,1.68,2.07,2.81.41,1.14.46,2.38.15,3.55,1.01-.27,1.95-.79,2.69-1.53l.04-.04c.56-.56,1.01-1.23,1.31-1.96.31-.73.46-1.52.46-2.31h0Z" fill="#18e299"/>
  <path d="M4.29,10.05c0-1.55.63-3.04,1.71-4.15L1.81,10.11s-.03.02-.05.04C.73,11.16.12,12.53.01,13.97c-.09,1.35.26,2.68,1.01,3.79.07.11.27.14.38.04l2.57-2.57c.81-.81,1.06-2,.67-3.08-.24-.67-.36-1.38-.35-2.1Z" fill="#0c8c5e"/>
  <path d="M14.51,14.41c-.81.79-1.82,1.34-2.91,1.58-1.1.24-2.25.17-3.31-.2h-.02c-1.07-.38-2.27-.13-3.07.67l-2.57,2.57c-.11.11-.09.29.04.38,1.11.74,2.44,1.1,3.79,1.01,1.44-.1,2.79-.72,3.82-1.75l.04-.04,4.2-4.2h0Z" fill="#0c8c5e"/>
  <path d="M92.52,18.44c-.99,0-1.85-.16-2.58-.47-.73-.32-1.29-.78-1.71-1.38-.4-.6-.62-1.31-.66-2.13h2c.04.49.18.91.45,1.24.26.33.61.59,1.05.76.43.17.92.25,1.45.25.56,0,1.06-.09,1.49-.26.44-.18.78-.42,1.03-.74.25-.32.38-.69.38-1.11,0-.38-.11-.68-.32-.92-.21-.25-.5-.45-.87-.62-.37-.17-.8-.32-1.3-.45l-1.52-.4c-1.12-.3-1.99-.73-2.59-1.29-.6-.56-.9-1.29-.9-2.2,0-.76.2-1.42.6-1.99.4-.57.96-1.01,1.65-1.32.7-.32,1.5-.47,2.39-.47s1.71.16,2.39.48c.69.32,1.22.76,1.61,1.32.39.56.59,1.2.62,1.93h-1.94c-.06-.63-.33-1.12-.83-1.48-.49-.35-1.12-.53-1.88-.53-.53,0-.99.08-1.38.25-.39.16-.7.39-.91.69-.22.29-.33.63-.33,1s.12.71.35.97c.23.25.53.45.9.61.37.15.75.28,1.14.39l1.3.33c.47.12.93.27,1.38.46.45.19.86.42,1.22.71.36.29.65.64.86,1.05.22.41.33.9.33,1.46,0,.75-.19,1.41-.58,2-.38.58-.93,1.03-1.66,1.36-.73.33-1.6.49-2.62.49ZM103.4,8.53v1.56h-5.34v-1.56h5.34ZM99.54,6.15h1.92v9.47c0,.38.08.66.24.83.16.18.43.26.81.26.11,0,.25,0,.41-.03.16-.02.3-.04.42-.06l.27,1.55c-.2.05-.41.09-.64.11-.23.02-.46.04-.68.04-.88,0-1.57-.22-2.05-.65-.47-.44-.71-1.07-.71-1.88V6.15ZM107.74,18.43c-.62,0-1.18-.11-1.68-.33-.5-.23-.89-.56-1.19-1-.29-.44-.43-.98-.43-1.62,0-.55.11-1,.32-1.35.22-.36.5-.64.86-.84.36-.21.76-.36,1.2-.47.45-.11.91-.18,1.38-.24.58-.07,1.05-.13,1.4-.18.36-.05.62-.12.78-.22.17-.1.25-.26.25-.49v-.05c0-.36-.07-.66-.21-.91-.14-.25-.35-.45-.63-.58-.28-.13-.63-.2-1.04-.2s-.78.07-1.08.2c-.31.13-.55.3-.75.51-.19.21-.32.42-.4.66l-1.82-.36c.18-.59.47-1.08.86-1.45.4-.38.87-.66,1.42-.84.54-.19,1.13-.28,1.75-.28.43,0,.87.05,1.32.16.45.11.86.28,1.24.54.38.25.68.59.91,1.03.23.43.34.98.34,1.63v6.49h-1.86v-1.34h-.08c-.13.25-.32.5-.56.73-.25.23-.56.43-.94.58-.38.15-.84.23-1.37.23ZM108.17,16.9c.53,0,.99-.1,1.35-.31.37-.21.65-.47.84-.81.19-.33.29-.69.29-1.07v-1.22c-.07.06-.19.12-.38.18-.19.05-.4.1-.64.15-.24.04-.48.08-.71.11-.23.03-.44.06-.61.08-.35.05-.68.13-.99.24-.3.11-.54.26-.72.47-.18.2-.26.47-.26.8,0,.3.08.56.23.76.16.2.38.36.65.47.27.11.59.16.95.16ZM114.69,18.23v-9.7h1.85v1.56h.09c.18-.53.49-.94.92-1.24.43-.3.94-.45,1.52-.45.13,0,.27,0,.41.02.15,0,.28.01.38.03v1.82c-.07-.02-.21-.04-.4-.06-.19-.02-.4-.04-.61-.04-.42,0-.8.09-1.14.27-.34.18-.61.44-.8.77-.19.33-.29.71-.29,1.16v5.86h-1.92ZM125.67,8.53v1.56h-5.34v-1.56h5.34ZM121.8,6.15h1.92v9.47c0,.38.08.66.24.83.16.18.43.26.81.26.11,0,.25,0,.41-.03.16-.02.3-.04.42-.06l.27,1.55c-.2.05-.41.09-.64.11-.23.02-.45.04-.68.04-.88,0-1.57-.22-2.05-.65-.47-.44-.71-1.07-.71-1.88V6.15ZM131.12,18.43c-.96,0-1.79-.21-2.48-.62-.69-.42-1.22-1-1.6-1.75-.37-.75-.55-1.63-.55-2.63s.19-1.86.55-2.62c.37-.76.89-1.36,1.56-1.78.67-.43,1.46-.64,2.36-.64.59,0,1.14.1,1.66.29.53.19.99.49,1.4.9.41.4.73.91.97,1.53.23.62.35,1.35.35,2.2v.65h-7.83v-1.44h6.84l-.88.47c0-.59-.1-1.11-.29-1.56-.19-.46-.47-.81-.84-1.06-.37-.25-.82-.38-1.36-.38s-1,.13-1.39.39c-.38.26-.67.6-.88,1.03-.21.43-.31.91-.31,1.43v.94c0,.65.11,1.21.33,1.67.23.46.55.82.96,1.06.42.24.9.36,1.45.36.37,0,.7-.05,1-.16.3-.11.55-.27.76-.48.21-.21.37-.47.47-.77l1.81.33c-.15.53-.41.99-.78,1.4-.38.4-.84.71-1.41.93-.56.22-1.18.33-1.88.33ZM136.99,18.23v-9.7h1.85v1.56h.09c.18-.53.49-.94.91-1.24.43-.3.94-.45,1.52-.45.13,0,.27,0,.41.02.15,0,.28.01.38.03v1.82c-.07-.02-.21-.04-.4-.06-.19-.02-.4-.04-.61-.04-.42,0-.8.09-1.14.27-.34.18-.61.44-.8.77-.19.33-.29.71-.29,1.16v5.86h-1.93Z" fill="#78716c"/>
</svg>
