<?xml version="1.0" encoding="UTF-8"?>
<svg id="Layer_1" xmlns="http://www.w3.org/2000/svg" version="1.1" viewBox="0 0 145 26">
  <!-- Generator: Adobe Illustrator 30.5.0, SVG Export Plug-In . SVG Version: 2.1.4 Build 64)  -->
  <rect x="0" width="145" height="26" fill="none"/>
  <path d="M76.85,22h-2.78l1.96-4.42-3.92-8.8h2.8l2.27,5.49c.08.2.37.2.46,0l2.25-5.49h2.82l-5.86,13.22Z" fill="#0c0a09"/>
  <path d="M68.4,18.1v-7.09h-1.88v-2.24h1.88v-1.21c0-1.11.34-1.98,1.01-2.61.67-.63,1.52-.95,2.56-.95.63,0,1.18.07,1.62.21v2.26c-.3-.11-.65-.17-1.04-.17-.56,0-.96.12-1.21.37-.25.24-.37.64-.37,1.21v.9h2.63v2.24h-2.63v7.09h-2.56Z" fill="#0c0a09"/>
  <path d="M64.23,7.25c-.44,0-.81-.16-1.14-.47-.32-.32-.48-.71-.48-1.16s.16-.83.48-1.14c.32-.32.7-.48,1.14-.48.46,0,.85.16,1.16.48.32.31.49.69.49,1.14s-.16.83-.49,1.16c-.31.31-.7.47-1.16.47ZM62.97,18.1v-9.33h2.56v9.33h-2.56Z" fill="#0c0a09"/>
  <path d="M58.52,18.1V4.11h2.56v13.99h-2.56Z" fill="#0c0a09"/>
  <path d="M55.63,18.21c-1.04,0-1.9-.29-2.57-.86-.66-.58-.99-1.42-.99-2.52v-3.82h-1.88v-2.24h1.88v-2.59h2.56v2.59h2.63v2.24h-2.63v3.32c0,.57.12.98.37,1.23.25.24.65.35,1.21.35.4,0,.75-.06,1.04-.17v2.26c-.45.14-.99.21-1.62.21Z" fill="#0c0a09"/>
  <path d="M40.62,18.1v-9.33h2.56v.66c0,.12.17.18.25.09.57-.63,1.38-.95,2.42-.95,1.12,0,2,.37,2.63,1.12.65.73.97,1.72.97,2.95v5.47h-2.56v-5.04c0-.68-.14-1.21-.43-1.59-.29-.39-.69-.58-1.21-.58-.62,0-1.13.22-1.51.67-.37.45-.56,1.11-.56,1.98v4.55h-2.56Z" fill="#0c0a09"/>
  <path d="M37.44,7.25c-.44,0-.81-.16-1.14-.47-.32-.32-.49-.71-.49-1.16s.16-.83.49-1.14c.32-.32.7-.48,1.14-.48.46,0,.85.16,1.16.48.32.31.49.69.49,1.14s-.16.83-.49,1.16c-.31.31-.7.47-1.16.47ZM36.17,18.1v-9.33h2.56v9.33h-2.56Z" fill="#0c0a09"/>
  <path d="M31.83,18.1v-4.98c0-1.48-.49-2.22-1.45-2.22-.56,0-1.01.21-1.34.63-.32.42-.5,1.05-.52,1.88v4.68h-2.56v-4.98c0-1.48-.49-2.22-1.45-2.22-.57,0-1.03.22-1.36.67-.34.45-.5,1.11-.5,1.98v4.55h-2.56v-9.33h2.56v.67c0,.12.16.17.24.08.56-.64,1.31-.96,2.24-.96,1.23,0,2.15.5,2.77,1.51.05.08.18.08.23,0,.27-.44.64-.79,1.12-1.05.55-.31,1.1-.47,1.66-.47,1.11,0,1.96.37,2.57,1.1.61.73.91,1.74.91,3.02v5.41h-2.56Z" fill="#0c0a09"/>
  <path d="M16.31,10.14v-5.05c0-.54-.44-.97-.97-.97h-5.05c-.79,0-1.58.16-2.31.46-.73.31-1.4.75-1.96,1.31l-.04.04c-.74.75-1.26,1.67-1.53,2.7.48-.13.97-.19,1.47-.2,1.32-.02,2.62.41,3.67,1.2.95.71,1.67,1.68,2.07,2.81.41,1.14.46,2.38.15,3.55,1.01-.27,1.95-.79,2.69-1.53l.04-.04c.56-.56,1.01-1.23,1.31-1.96.31-.73.46-1.52.46-2.31h0Z" fill="#18e299"/>
  <path d="M4.29,10.05c0-1.55.63-3.04,1.71-4.15L1.81,10.11s-.03.02-.05.04C.73,11.16.12,12.53.01,13.97c-.09,1.35.26,2.68,1.01,3.79.07.11.27.14.38.04l2.57-2.57c.81-.81,1.06-2,.67-3.08-.24-.67-.36-1.38-.35-2.1Z" fill="#0c8c5e"/>
  <path d="M14.51,14.41c-.81.79-1.82,1.34-2.91,1.58-1.1.24-2.25.17-3.31-.2h-.02c-1.07-.38-2.27-.13-3.07.67l-2.57,2.57c-.11.11-.09.29.04.38,1.11.74,2.44,1.1,3.79,1.01,1.44-.1,2.79-.72,3.82-1.75l.04-.04,4.2-4.2h0Z" fill="#0c8c5e"/>
  <path d="M95.34,10.81l-1.73.31c-.07-.22-.19-.43-.35-.63-.15-.2-.36-.36-.63-.49-.26-.13-.59-.19-.99-.19-.54,0-.99.12-1.36.36-.36.24-.54.55-.54.93,0,.33.12.59.36.79.24.2.63.36,1.18.49l1.56.36c.9.21,1.58.53,2.02.97.44.43.66,1,.66,1.69,0,.59-.17,1.11-.51,1.57-.34.46-.81.81-1.41,1.07-.6.26-1.3.39-2.09.39-1.1,0-2-.23-2.69-.7-.69-.47-1.12-1.14-1.28-2.01l1.85-.28c.11.48.35.85.71,1.09.36.24.82.36,1.4.36.63,0,1.13-.13,1.5-.39.38-.26.56-.59.56-.97,0-.31-.12-.56-.35-.77-.23-.21-.57-.37-1.04-.47l-1.66-.36c-.92-.21-1.59-.54-2.03-1-.43-.46-.65-1.03-.65-1.73,0-.58.16-1.09.49-1.52.32-.43.77-.77,1.34-1.02.57-.25,1.23-.37,1.96-.37,1.06,0,1.9.23,2.51.69.61.46,1.01,1.07,1.21,1.83ZM101.86,8.41v1.53h-5.36v-1.53h5.36ZM97.94,6.06h1.91v9.29c0,.37.06.65.17.84.11.18.25.31.43.38.18.06.37.1.58.1.15,0,.29-.01.4-.03.11-.02.2-.04.27-.05l.35,1.58c-.11.04-.27.09-.47.13-.21.05-.46.07-.77.08-.5,0-.97-.08-1.41-.27s-.79-.48-1.05-.87c-.27-.39-.4-.88-.4-1.48V6.06ZM106.47,18.45c-.62,0-1.18-.12-1.69-.35-.5-.23-.9-.57-1.2-1.02-.29-.44-.43-.99-.43-1.63,0-.55.11-1.01.32-1.37.21-.36.5-.64.86-.85.36-.21.77-.37,1.22-.47.45-.11.9-.19,1.37-.24.59-.07,1.07-.12,1.43-.17.37-.05.63-.12.8-.22.17-.1.25-.27.25-.5v-.04c0-.56-.16-.99-.47-1.3-.31-.31-.78-.46-1.39-.46s-1.15.14-1.52.43c-.37.28-.62.59-.76.94l-1.8-.41c.21-.6.52-1.08.93-1.44.41-.37.89-.64,1.43-.81.54-.17,1.1-.26,1.69-.26.39,0,.81.05,1.25.14.44.09.86.26,1.24.5.39.24.71.59.95,1.04.25.45.37,1.03.37,1.75v6.52h-1.87v-1.34h-.08c-.12.25-.31.49-.56.73-.25.24-.56.44-.95.59-.39.16-.85.24-1.39.24ZM106.89,16.92c.53,0,.98-.1,1.35-.31.38-.21.67-.48.86-.82.2-.34.3-.71.3-1.09v-1.27c-.07.07-.2.13-.4.19-.19.06-.41.1-.66.15-.25.04-.49.07-.72.11-.23.03-.43.06-.59.08-.37.05-.71.13-1.02.24-.3.11-.55.27-.73.48-.18.2-.27.48-.27.82,0,.47.17.83.52,1.07.35.24.79.36,1.34.36ZM113.5,18.23v-9.82h1.85v1.56h.1c.18-.53.49-.94.95-1.25.46-.31.97-.46,1.55-.46.12,0,.26,0,.42.01.17,0,.3.02.39.03v1.83c-.08-.02-.21-.04-.41-.07-.2-.03-.39-.04-.59-.04-.45,0-.85.1-1.21.29-.35.19-.63.45-.83.79-.2.33-.31.71-.31,1.14v6h-1.91ZM125.21,8.41v1.53h-5.36v-1.53h5.36ZM121.29,6.06h1.91v9.29c0,.37.06.65.17.84.11.18.25.31.43.38.18.06.37.1.58.1.15,0,.29-.01.4-.03.11-.02.2-.04.27-.05l.35,1.58c-.11.04-.27.09-.47.13-.2.05-.46.07-.77.08-.5,0-.97-.08-1.41-.27-.43-.19-.79-.48-1.05-.87-.27-.39-.4-.88-.4-1.48V6.06ZM131.1,18.43c-.97,0-1.8-.21-2.5-.62-.69-.42-1.23-1-1.61-1.76-.38-.76-.56-1.65-.56-2.67s.19-1.89.56-2.66c.38-.77.91-1.37,1.59-1.8.68-.43,1.48-.65,2.39-.65.55,0,1.09.09,1.61.27.52.18.99.47,1.4.86.41.39.74.9.98,1.53.24.62.36,1.38.36,2.27v.68h-7.81v-1.43h5.93c0-.5-.1-.95-.31-1.34-.2-.39-.49-.7-.86-.93-.37-.23-.8-.34-1.29-.34-.54,0-1.01.13-1.41.4-.4.26-.7.6-.92,1.02-.21.42-.32.87-.32,1.36v1.12c0,.66.12,1.21.35,1.67.24.46.56.81.98,1.05.42.24.91.36,1.46.36.36,0,.69-.05.99-.15.3-.11.56-.26.77-.47.22-.21.38-.47.5-.77l1.81.33c-.15.53-.4,1-.78,1.4-.37.4-.84.71-1.4.93-.56.22-1.19.33-1.91.33ZM137.07,18.23v-9.82h1.85v1.56h.1c.18-.53.49-.94.95-1.25.46-.31.97-.46,1.55-.46.12,0,.26,0,.42.01.17,0,.3.02.39.03v1.83c-.08-.02-.21-.04-.41-.07-.2-.03-.39-.04-.59-.04-.45,0-.85.1-1.21.29-.35.19-.63.45-.83.79-.21.33-.31.71-.31,1.14v6h-1.91Z" fill="#78716c"/>
</svg>