<svg width="204" height="18" viewBox="0 0 204 18" fill="none" xmlns="http://www.w3.org/2000/svg">
<path d="M76.8455 18H74.0662L76.0248 13.5793L72.1077 4.77515H74.9056L77.1764 10.2659C77.2605 10.4692 77.5487 10.4688 77.6322 10.2653L79.8859 4.77515H82.7025L76.8455 18Z" fill="#0C0A09"/>
<path d="M68.4037 14.1015V7.01346H66.5198V4.77512H68.4037V3.56269C68.4037 2.45596 68.7395 1.58549 69.411 0.951294C70.0825 0.317098 70.9343 0 71.9664 0C72.6006 0 73.1415 0.0683936 73.5892 0.205181V2.46217C73.2908 2.35026 72.9426 2.2943 72.5446 2.2943C71.9851 2.2943 71.5809 2.41865 71.3322 2.66735C71.0835 2.90362 70.9591 3.30777 70.9591 3.87979V4.77512H73.5892V7.01346H70.9591V14.1015H68.4037Z" fill="#0C0A09"/>
<path d="M64.2336 3.24559C63.7984 3.24559 63.4191 3.09015 63.0958 2.77927C62.7725 2.45596 62.6108 2.07046 62.6108 1.6228C62.6108 1.17513 62.7725 0.795854 63.0958 0.484974C63.4191 0.161658 63.7984 0 64.2336 0C64.6937 0 65.0792 0.161658 65.3901 0.484974C65.7134 0.795854 65.8751 1.17513 65.8751 1.6228C65.8751 2.07046 65.7134 2.45596 65.3901 2.77927C65.0792 3.09015 64.6937 3.24559 64.2336 3.24559ZM62.9652 14.1015V4.77512H65.5207V14.1015H62.9652Z" fill="#0C0A09"/>
<path d="M58.5156 14.1014V0.111816H61.0711V14.1014H58.5156Z" fill="#0C0A09"/>
<path d="M55.6288 14.2134C54.5842 14.2134 53.7262 13.9274 53.0547 13.3554C52.3956 12.771 52.0661 11.9316 52.0661 10.8373V7.01346H50.1821V4.77512H52.0661V2.18237H54.6215V4.77512H57.2515V7.01346H54.6215V10.3337C54.6215 10.9057 54.7459 11.316 54.9946 11.5647C55.2433 11.801 55.6474 11.9191 56.207 11.9191C56.6049 11.9191 56.9531 11.8632 57.2515 11.7513V14.0083C56.8039 14.1451 56.2629 14.2134 55.6288 14.2134Z" fill="#0C0A09"/>
<path d="M40.6177 14.1017V4.77525H43.1731V5.43633C43.1731 5.55783 43.3389 5.61183 43.4201 5.52139C43.989 4.88718 44.7958 4.57007 45.8405 4.57007C46.9596 4.57007 47.8363 4.94313 48.4705 5.68924C49.1171 6.42292 49.4405 7.4053 49.4405 8.63638V14.1017H46.885V9.0654C46.885 8.38146 46.742 7.85297 46.456 7.47991C46.17 7.09442 45.7659 6.90167 45.2436 6.90167C44.6218 6.90167 44.1182 7.12551 43.7327 7.57317C43.3596 8.02084 43.1731 8.67991 43.1731 9.55037V14.1017H40.6177Z" fill="#0C0A09"/>
<path d="M37.4363 3.24559C37.001 3.24559 36.6218 3.09015 36.2985 2.77927C35.9751 2.45596 35.8135 2.07046 35.8135 1.6228C35.8135 1.17513 35.9751 0.795854 36.2985 0.484974C36.6218 0.161658 37.001 0 37.4363 0C37.8964 0 38.2819 0.161658 38.5927 0.484974C38.9161 0.795854 39.0777 1.17513 39.0777 1.6228C39.0777 2.07046 38.9161 2.45596 38.5927 2.77927C38.2819 3.09015 37.8964 3.24559 37.4363 3.24559ZM36.1679 14.1015V4.77512H38.7233V14.1015H36.1679Z" fill="#0C0A09"/>
<path d="M31.8297 14.1017V9.12136C31.8297 7.64157 31.3447 6.90167 30.3747 6.90167C29.8151 6.90167 29.3675 7.11307 29.0317 7.53587C28.7084 7.95867 28.5343 8.58664 28.5094 9.4198V14.1017H25.954V9.12136C25.954 7.64157 25.469 6.90167 24.4991 6.90167C23.9271 6.90167 23.4732 7.12551 23.1374 7.57317C22.8017 8.02084 22.6338 8.67991 22.6338 9.55037V14.1017H20.0784V4.77525H22.6338V5.4434C22.6338 5.56427 22.7967 5.61771 22.8767 5.52708C23.4397 4.88907 24.1857 4.57007 25.1146 4.57007C26.341 4.57007 27.2657 5.07469 27.8887 6.08392C27.9408 6.16825 28.0683 6.16687 28.1202 6.08241C28.3891 5.64448 28.7613 5.29581 29.2369 5.03639C29.7841 4.72551 30.3374 4.57007 30.897 4.57007C32.0037 4.57007 32.8618 4.93691 33.4711 5.67059C34.0804 6.40426 34.3851 7.41152 34.3851 8.69234V14.1017H31.8297Z" fill="#0C0A09"/>
<path d="M16.305 6.13856V1.08616C16.305 0.543984 15.8652 0.111816 15.3311 0.111816H10.281C9.48777 0.111816 8.70238 0.268962 7.97197 0.567549C7.24155 0.873994 6.57397 1.31402 6.01634 1.87977L5.97707 1.91906C5.2388 2.66552 4.71259 3.59271 4.44556 4.61419C4.92465 4.48847 5.41942 4.42561 5.91422 4.41775C7.23368 4.40204 8.5296 4.82635 9.58203 5.61996C10.5324 6.32715 11.2549 7.30148 11.6476 8.42511C12.056 9.56446 12.1031 10.806 11.7968 11.9767C12.81 11.7096 13.7446 11.1831 14.4907 10.4445L14.53 10.4052C15.0876 9.84733 15.5353 9.17944 15.8416 8.44869C16.1479 7.71793 16.2971 6.93218 16.2971 6.13856H16.305Z" fill="#F97316"/>
<path d="M4.29481 6.05311C4.30264 4.50318 4.92076 3.01587 6.00834 1.9043L1.80665 6.1079C1.791 6.12356 1.77534 6.13139 1.7597 6.14704C0.734705 7.16468 0.116597 8.52675 0.0148805 9.96709C-0.0790116 11.3135 0.273076 12.6442 1.02421 13.7558C1.09586 13.8618 1.29026 13.8967 1.39981 13.795L3.97401 11.2274C4.77992 10.4211 5.0303 9.22343 4.64691 8.151C4.40436 7.48562 4.28699 6.77328 4.29481 6.05311Z" fill="#9A3412"/>
<path d="M14.5056 10.4058C13.6997 11.1964 12.6904 11.7443 11.5949 11.987C10.4917 12.2297 9.34938 12.1592 8.28526 11.7835C8.28526 11.7835 8.27742 11.7835 8.2696 11.7835C7.19766 11.3999 6.00056 11.6504 5.19465 12.4489L2.62041 15.0164C2.51087 15.126 2.52651 15.3061 2.65953 15.3922C3.77059 16.1358 5.10076 16.4959 6.44654 16.402C7.88622 16.3002 9.23982 15.6818 10.2648 14.6563L10.3039 14.6172L14.5056 10.4136V10.4058Z" fill="#9A3412"/>
<path d="M88.0913 14.2324V1.13672H92.8198C93.8159 1.13672 94.6509 1.31836 95.3247 1.68164C95.9985 2.04492 96.5054 2.5459 96.8452 3.18457C97.1909 3.81738 97.3638 4.53809 97.3638 5.34668C97.3638 6.16113 97.1909 6.8877 96.8452 7.52637C96.4995 8.15918 95.9868 8.66016 95.3071 9.0293C94.6333 9.39258 93.7954 9.57422 92.7935 9.57422H89.4624V7.86914H92.6353C93.2622 7.86914 93.7749 7.76367 94.1733 7.55273C94.5776 7.33594 94.8765 7.03711 95.0698 6.65625C95.2632 6.27539 95.3599 5.83887 95.3599 5.34668C95.3599 4.85449 95.2632 4.4209 95.0698 4.0459C94.8765 3.6709 94.5776 3.37793 94.1733 3.16699C93.769 2.95605 93.2534 2.85059 92.6265 2.85059H90.0952V14.2324H88.0913ZM99.0077 14.2324V4.5293H100.862V6.08496H100.95C101.132 5.55762 101.436 5.14453 101.864 4.8457C102.298 4.54688 102.805 4.39746 103.385 4.39746C103.514 4.39746 103.651 4.40332 103.798 4.41504C103.95 4.4209 104.076 4.42969 104.176 4.44141V6.26074C104.105 6.24316 103.971 6.22266 103.771 6.19922C103.578 6.17578 103.376 6.16406 103.165 6.16406C102.743 6.16406 102.362 6.25488 102.022 6.43652C101.682 6.61816 101.416 6.87598 101.223 7.20996C101.029 7.53809 100.932 7.9248 100.932 8.37012V14.2324H99.0077ZM109.221 14.4346C108.307 14.4346 107.507 14.2266 106.822 13.8105C106.142 13.3887 105.612 12.8027 105.231 12.0527C104.856 11.2969 104.668 10.4209 104.668 9.4248C104.668 8.41699 104.856 7.53516 105.231 6.7793C105.612 6.02344 106.142 5.4375 106.822 5.02148C107.507 4.59961 108.307 4.38867 109.221 4.38867C110.141 4.38867 110.941 4.59961 111.62 5.02148C112.306 5.4375 112.836 6.02344 113.211 6.7793C113.592 7.53516 113.782 8.41699 113.782 9.4248C113.782 10.4209 113.592 11.2969 113.211 12.0527C112.836 12.8027 112.306 13.3887 111.62 13.8105C110.941 14.2266 110.141 14.4346 109.221 14.4346ZM109.221 12.8086C109.801 12.8086 110.284 12.6592 110.671 12.3604C111.064 12.0557 111.357 11.6484 111.55 11.1387C111.743 10.623 111.84 10.0518 111.84 9.4248C111.84 8.78613 111.743 8.21191 111.55 7.70215C111.357 7.18652 111.064 6.77637 110.671 6.47168C110.284 6.16699 109.801 6.01465 109.221 6.01465C108.641 6.01465 108.157 6.16699 107.771 6.47168C107.39 6.77637 107.103 7.18652 106.909 7.70215C106.716 8.21191 106.619 8.78613 106.619 9.4248C106.619 10.0518 106.716 10.623 106.909 11.1387C107.103 11.6484 107.39 12.0557 107.771 12.3604C108.157 12.6592 108.641 12.8086 109.221 12.8086ZM119.1 14.4258C118.303 14.4258 117.597 14.2236 116.982 13.8193C116.367 13.4092 115.883 12.8291 115.532 12.0791C115.186 11.3291 115.013 10.4355 115.013 9.39844C115.013 8.35547 115.189 7.46191 115.541 6.71777C115.892 5.96777 116.376 5.39355 116.991 4.99512C117.612 4.59082 118.315 4.38867 119.1 4.38867C119.663 4.38867 120.128 4.48242 120.498 4.66992C120.873 4.85156 121.171 5.07129 121.394 5.3291C121.623 5.58691 121.801 5.83301 121.93 6.06738H122.027V1.13672H123.943V14.2324H122.071V12.7207H121.939C121.81 12.9668 121.628 13.2217 121.394 13.4854C121.16 13.7432 120.858 13.9658 120.489 14.1533C120.12 14.335 119.657 14.4258 119.1 14.4258ZM119.513 12.791C120.058 12.791 120.521 12.6475 120.902 12.3604C121.283 12.0732 121.573 11.6748 121.772 11.165C121.971 10.6553 122.071 10.0635 122.071 9.38965C122.071 8.70996 121.971 8.12109 121.772 7.62305C121.579 7.11914 121.292 6.72656 120.911 6.44531C120.53 6.16406 120.064 6.02344 119.513 6.02344C118.962 6.02344 118.497 6.16699 118.116 6.4541C117.741 6.74121 117.454 7.13672 117.254 7.64062C117.061 8.14453 116.964 8.72754 116.964 9.38965C116.964 10.0459 117.061 10.6318 117.254 11.1475C117.454 11.6572 117.744 12.0586 118.125 12.3516C118.511 12.6445 118.974 12.791 119.513 12.791ZM129.428 14.3643C128.766 14.3643 128.183 14.2266 127.679 13.9512C127.175 13.6699 126.779 13.2539 126.492 12.7031C126.211 12.1523 126.07 11.4727 126.07 10.6641V4.5293H127.995V10.4268C127.995 11.1416 128.177 11.6982 128.54 12.0967C128.909 12.4951 129.416 12.6943 130.06 12.6943C130.494 12.6943 130.881 12.6006 131.221 12.4131C131.56 12.2256 131.83 11.9502 132.029 11.5869C132.228 11.2178 132.328 10.7695 132.328 10.2422V4.5293H134.253V14.2324H132.407L132.398 11.8506H132.644C132.352 12.7236 131.93 13.3623 131.379 13.7666C130.834 14.165 130.184 14.3643 129.428 14.3643ZM140.476 14.4346C139.568 14.4346 138.771 14.2266 138.085 13.8105C137.406 13.3887 136.875 12.8027 136.494 12.0527C136.119 11.2969 135.932 10.4209 135.932 9.4248C135.932 8.41699 136.119 7.53516 136.494 6.7793C136.875 6.02344 137.406 5.4375 138.085 5.02148C138.771 4.59961 139.568 4.38867 140.476 4.38867C140.997 4.38867 141.484 4.45898 141.935 4.59961C142.386 4.73437 142.79 4.93359 143.148 5.19727C143.511 5.45508 143.813 5.77148 144.053 6.14648C144.299 6.51562 144.475 6.93164 144.58 7.39453L142.743 7.7373C142.685 7.47949 142.588 7.24512 142.453 7.03418C142.325 6.82324 142.163 6.6416 141.97 6.48926C141.783 6.33691 141.563 6.21973 141.311 6.1377C141.065 6.05566 140.792 6.01465 140.493 6.01465C139.913 6.01465 139.43 6.16699 139.043 6.47168C138.657 6.77051 138.367 7.17773 138.173 7.69336C137.98 8.20312 137.883 8.78027 137.883 9.4248C137.883 10.0576 137.98 10.6289 138.173 11.1387C138.367 11.6484 138.654 12.0557 139.034 12.3604C139.421 12.6592 139.908 12.8086 140.493 12.8086C140.798 12.8086 141.076 12.7676 141.328 12.6855C141.58 12.5977 141.8 12.4775 141.988 12.3252C142.181 12.167 142.342 11.9795 142.471 11.7627C142.606 11.54 142.705 11.2969 142.77 11.0332L144.598 11.3672C144.498 11.8418 144.325 12.2666 144.079 12.6416C143.833 13.0166 143.529 13.3389 143.165 13.6084C142.808 13.8779 142.401 14.083 141.944 14.2236C141.492 14.3643 141.003 14.4346 140.476 14.4346ZM150.505 4.5293V6.09375H145.161V4.5293H150.505ZM146.637 2.14746H148.562V11.6221C148.562 12.0029 148.641 12.2812 148.799 12.457C148.958 12.6328 149.227 12.7207 149.608 12.7207C149.719 12.7207 149.857 12.7119 150.021 12.6943C150.185 12.6709 150.326 12.6504 150.443 12.6328L150.715 14.1797C150.516 14.2324 150.302 14.2705 150.074 14.2939C149.845 14.3174 149.62 14.3291 149.397 14.3291C148.512 14.3291 147.83 14.1123 147.349 13.6787C146.875 13.2393 146.637 12.6123 146.637 11.7979V2.14746ZM161.966 14.417C160.777 14.417 159.734 14.1416 158.837 13.5908C157.941 13.04 157.241 12.2607 156.737 11.2529C156.233 10.2451 155.981 9.05859 155.981 7.69336C155.981 6.31055 156.236 5.11523 156.745 4.10742C157.255 3.09961 157.955 2.32324 158.846 1.77832C159.737 1.22754 160.75 0.952148 161.887 0.952148C162.596 0.952148 163.258 1.05762 163.873 1.26855C164.489 1.47949 165.037 1.77832 165.517 2.16504C166.003 2.55176 166.405 3.01172 166.721 3.54492C167.037 4.07813 167.251 4.66699 167.363 5.31152H165.315C165.203 4.9248 165.045 4.57617 164.84 4.26562C164.635 3.94922 164.386 3.67969 164.093 3.45703C163.806 3.23438 163.478 3.06445 163.109 2.94727C162.745 2.83008 162.347 2.77148 161.913 2.77148C161.158 2.77148 160.481 2.96484 159.883 3.35156C159.286 3.73242 158.814 4.28906 158.468 5.02148C158.128 5.75391 157.958 6.6416 157.958 7.68457C157.958 8.72168 158.128 9.60645 158.468 10.3389C158.814 11.0713 159.288 11.6309 159.892 12.0176C160.495 12.4043 161.19 12.5977 161.975 12.5977C162.672 12.5977 163.287 12.4541 163.821 12.167C164.354 11.8799 164.767 11.4727 165.06 10.9453C165.359 10.418 165.508 9.7998 165.508 9.09082L166.036 9.16992H162.291V7.52637H167.459V9.0293C167.459 10.1191 167.222 11.0684 166.747 11.877C166.273 12.6797 165.622 13.3037 164.796 13.749C163.97 14.1943 163.027 14.417 161.966 14.417ZM172.68 14.3643C172.018 14.3643 171.435 14.2266 170.931 13.9512C170.427 13.6699 170.032 13.2539 169.745 12.7031C169.464 12.1523 169.323 11.4727 169.323 10.6641V4.5293H171.248V10.4268C171.248 11.1416 171.429 11.6982 171.793 12.0967C172.162 12.4951 172.669 12.6943 173.313 12.6943C173.747 12.6943 174.134 12.6006 174.473 12.4131C174.813 12.2256 175.083 11.9502 175.282 11.5869C175.481 11.2178 175.581 10.7695 175.581 10.2422V4.5293H177.506V14.2324H175.66L175.651 11.8506H175.897C175.604 12.7236 175.182 13.3623 174.632 13.7666C174.087 14.165 173.436 14.3643 172.68 14.3643ZM179.633 14.2324V4.5293H181.558V14.2324H179.633ZM180.6 3.00879C180.266 3.00879 179.982 2.89746 179.747 2.6748C179.513 2.44629 179.396 2.17383 179.396 1.85742C179.396 1.53516 179.513 1.26563 179.747 1.04883C179.982 0.826172 180.266 0.714844 180.6 0.714844C180.934 0.714844 181.218 0.826172 181.452 1.04883C181.687 1.26563 181.804 1.53516 181.804 1.85742C181.804 2.17383 181.687 2.44629 181.452 2.6748C181.218 2.89746 180.934 3.00879 180.6 3.00879ZM187.324 14.4258C186.527 14.4258 185.821 14.2236 185.206 13.8193C184.59 13.4092 184.107 12.8291 183.755 12.0791C183.41 11.3291 183.237 10.4355 183.237 9.39844C183.237 8.35547 183.413 7.46191 183.764 6.71777C184.116 5.96777 184.599 5.39355 185.214 4.99512C185.835 4.59082 186.539 4.38867 187.324 4.38867C187.886 4.38867 188.352 4.48242 188.721 4.66992C189.096 4.85156 189.395 5.07129 189.618 5.3291C189.846 5.58691 190.025 5.83301 190.154 6.06738H190.25V1.13672H192.166V14.2324H190.294V12.7207H190.163C190.034 12.9668 189.852 13.2217 189.618 13.4854C189.383 13.7432 189.082 13.9658 188.712 14.1533C188.343 14.335 187.88 14.4258 187.324 14.4258ZM187.737 12.791C188.282 12.791 188.745 12.6475 189.125 12.3604C189.506 12.0732 189.796 11.6748 189.996 11.165C190.195 10.6553 190.294 10.0635 190.294 9.38965C190.294 8.70996 190.195 8.12109 189.996 7.62305C189.802 7.11914 189.515 6.72656 189.134 6.44531C188.753 6.16406 188.288 6.02344 187.737 6.02344C187.186 6.02344 186.72 6.16699 186.339 6.4541C185.964 6.74121 185.677 7.13672 185.478 7.64062C185.285 8.14453 185.188 8.72754 185.188 9.38965C185.188 10.0459 185.285 10.6318 185.478 11.1475C185.677 11.6572 185.967 12.0586 186.348 12.3516C186.735 12.6445 187.198 12.791 187.737 12.791ZM198.477 14.4346C197.516 14.4346 196.69 14.2266 195.999 13.8105C195.307 13.3945 194.774 12.8115 194.399 12.0615C194.03 11.3115 193.846 10.4355 193.846 9.43359C193.846 8.44336 194.03 7.57031 194.399 6.81445C194.768 6.05273 195.29 5.45801 195.964 5.03027C196.638 4.60254 197.423 4.38867 198.319 4.38867C198.905 4.38867 199.459 4.48535 199.98 4.67871C200.508 4.87207 200.973 5.1709 201.378 5.5752C201.788 5.97363 202.11 6.4834 202.345 7.10449C202.579 7.71973 202.696 8.45215 202.696 9.30176V9.95215H194.865V8.51074H201.703L200.824 8.97656C200.824 8.38477 200.727 7.86328 200.534 7.41211C200.347 6.95508 200.065 6.60059 199.69 6.34863C199.321 6.09668 198.867 5.9707 198.328 5.9707C197.789 5.9707 197.326 6.09961 196.939 6.35742C196.558 6.61523 196.265 6.95801 196.06 7.38574C195.855 7.81348 195.753 8.29102 195.753 8.81836V9.75879C195.753 10.4092 195.864 10.9658 196.087 11.4287C196.315 11.8916 196.635 12.2461 197.045 12.4922C197.461 12.7324 197.944 12.8525 198.495 12.8525C198.864 12.8525 199.198 12.7998 199.497 12.6943C199.796 12.583 200.051 12.4219 200.262 12.2109C200.472 12 200.631 11.7422 200.736 11.4375L202.547 11.7715C202.4 12.2988 202.139 12.7646 201.764 13.1689C201.389 13.5674 200.921 13.8779 200.358 14.1006C199.802 14.3232 199.175 14.4346 198.477 14.4346Z" fill="#7c6760"/>
</svg>
