<svg width="83" height="18" viewBox="0 0 83 18" fill="none" xmlns="http://www.w3.org/2000/svg">
  <path d="M76.8456 18H74.0663L76.0249 13.5793L72.1078 4.77515H74.9057L77.1766 10.2659C77.2607 10.4692 77.5488 10.4688 77.6324 10.2653L79.886 4.77515H82.7026L76.8456 18Z" fill="#0C0A09"/>
  <path d="M68.4038 14.1015V7.01346H66.5199V4.77512H68.4038V3.56269C68.4038 2.45596 68.7396 1.58549 69.4111 0.951294C70.0826 0.317098 70.9344 0 71.9665 0C72.6007 0 73.1417 0.0683936 73.5893 0.205181V2.46217C73.2909 2.35026 72.9427 2.2943 72.5448 2.2943C71.9852 2.2943 71.581 2.41865 71.3323 2.66735C71.0836 2.90362 70.9593 3.30777 70.9593 3.87979V4.77512H73.5893V7.01346H70.9593V14.1015H68.4038Z" fill="#0C0A09"/>
  <path d="M64.2339 3.24559C63.7986 3.24559 63.4194 3.09015 63.0961 2.77927C62.7727 2.45596 62.6111 2.07046 62.6111 1.6228C62.6111 1.17513 62.7727 0.795854 63.0961 0.484974C63.4194 0.161658 63.7986 0 64.2339 0C64.694 0 65.0795 0.161658 65.3904 0.484974C65.7137 0.795854 65.8753 1.17513 65.8753 1.6228C65.8753 2.07046 65.7137 2.45596 65.3904 2.77927C65.0795 3.09015 64.694 3.24559 64.2339 3.24559ZM62.9655 14.1015V4.77512H65.5209V14.1015H62.9655Z" fill="#0C0A09"/>
  <path d="M58.5157 14.1014V0.111816H61.0712V14.1014H58.5157Z" fill="#0C0A09"/>
  <path d="M55.629 14.2134C54.5844 14.2134 53.7264 13.9274 53.0549 13.3554C52.3958 12.771 52.0663 11.9316 52.0663 10.8373V7.01346H50.1824V4.77512H52.0663V2.18237H54.6217V4.77512H57.2518V7.01346H54.6217V10.3337C54.6217 10.9057 54.7461 11.316 54.9948 11.5647C55.2435 11.801 55.6476 11.9191 56.2072 11.9191C56.6052 11.9191 56.9533 11.8632 57.2518 11.7513V14.0083C56.8041 14.1451 56.2632 14.2134 55.629 14.2134Z" fill="#0C0A09"/>
  <path d="M40.6178 14.1017V4.77525H43.1732V5.43633C43.1732 5.55783 43.3391 5.61183 43.4202 5.52139C43.9892 4.88718 44.796 4.57007 45.8406 4.57007C46.9598 4.57007 47.8364 4.94313 48.4706 5.68924C49.1173 6.42292 49.4406 7.4053 49.4406 8.63638V14.1017H46.8851V9.0654C46.8851 8.38146 46.7421 7.85297 46.4561 7.47991C46.1701 7.09442 45.766 6.90167 45.2437 6.90167C44.6219 6.90167 44.1183 7.12551 43.7328 7.57317C43.3598 8.02084 43.1732 8.67991 43.1732 9.55037V14.1017H40.6178Z" fill="#0C0A09"/>
  <path d="M37.4364 3.24559C37.0012 3.24559 36.6219 3.09015 36.2986 2.77927C35.9753 2.45596 35.8136 2.07046 35.8136 1.6228C35.8136 1.17513 35.9753 0.795854 36.2986 0.484974C36.6219 0.161658 37.0012 0 37.4364 0C37.8965 0 38.282 0.161658 38.5929 0.484974C38.9162 0.795854 39.0778 1.17513 39.0778 1.6228C39.0778 2.07046 38.9162 2.45596 38.5929 2.77927C38.282 3.09015 37.8965 3.24559 37.4364 3.24559ZM36.168 14.1015V4.77512H38.7234V14.1015H36.168Z" fill="#0C0A09"/>
  <path d="M31.8298 14.1017V9.12136C31.8298 7.64157 31.3448 6.90167 30.3749 6.90167C29.8153 6.90167 29.3676 7.11307 29.0318 7.53587C28.7085 7.95867 28.5344 8.58664 28.5096 9.4198V14.1017H25.9541V9.12136C25.9541 7.64157 25.4692 6.90167 24.4992 6.90167C23.9272 6.90167 23.4733 7.12551 23.1376 7.57317C22.8018 8.02084 22.6339 8.67991 22.6339 9.55037V14.1017H20.0785V4.77525H22.6339V5.4434C22.6339 5.56427 22.7969 5.61771 22.8768 5.52708C23.4398 4.88907 24.1858 4.57007 25.1148 4.57007C26.3411 4.57007 27.2658 5.07469 27.8888 6.08392C27.9409 6.16825 28.0684 6.16687 28.1203 6.08241C28.3892 5.64448 28.7614 5.29581 29.237 5.03639C29.7842 4.72551 30.3375 4.57007 30.8971 4.57007C32.0039 4.57007 32.8619 4.93691 33.4712 5.67059C34.0805 6.40426 34.3852 7.41152 34.3852 8.69234V14.1017H31.8298Z" fill="#0C0A09"/>
  <path d="M16.305 6.13856V1.08616C16.305 0.543984 15.8652 0.111816 15.3311 0.111816H10.281C9.48777 0.111816 8.70238 0.268962 7.97197 0.567549C7.24155 0.873994 6.57397 1.31402 6.01634 1.87977L5.97707 1.91906C5.2388 2.66552 4.71259 3.59271 4.44556 4.61419C4.92465 4.48847 5.41942 4.42561 5.91422 4.41775C7.23368 4.40204 8.5296 4.82635 9.58203 5.61996C10.5324 6.32715 11.2549 7.30148 11.6476 8.42511C12.056 9.56446 12.1031 10.806 11.7968 11.9767C12.81 11.7096 13.7446 11.1831 14.4907 10.4445L14.53 10.4052C15.0876 9.84733 15.5353 9.17944 15.8416 8.44869C16.1479 7.71793 16.2971 6.93218 16.2971 6.13856H16.305Z" fill="#18E299"/>
  <path d="M4.29481 6.05311C4.30264 4.50318 4.92076 3.01587 6.00834 1.9043L1.80665 6.1079C1.791 6.12356 1.77534 6.13139 1.7597 6.14704C0.734705 7.16468 0.116597 8.52675 0.0148805 9.96709C-0.0790116 11.3135 0.273076 12.6442 1.02421 13.7558C1.09586 13.8618 1.29026 13.8967 1.39981 13.795L3.97401 11.2274C4.77992 10.4211 5.0303 9.22343 4.64691 8.151C4.40436 7.48562 4.28699 6.77328 4.29481 6.05311Z" fill="#0C8C5E"/>
  <path d="M14.5055 10.4058C13.6996 11.1964 12.6902 11.7443 11.5948 11.987C10.4916 12.2297 9.34925 12.1592 8.28514 11.7835C8.28514 11.7835 8.2773 11.7835 8.26948 11.7835C7.19754 11.3999 6.00043 11.6504 5.19453 12.4489L2.62028 15.0164C2.51074 15.126 2.52639 15.3061 2.65941 15.3922C3.77046 16.1358 5.10063 16.4959 6.44642 16.402C7.8861 16.3002 9.2397 15.6818 10.2647 14.6563L10.3038 14.6172L14.5055 10.4136V10.4058Z" fill="#0C8C5E"/>
</svg>
