<svg width="180" height="19" viewBox="0 0 180 19" fill="none" xmlns="http://www.w3.org/2000/svg">
<path d="M76.8455 18H74.0662L76.0248 13.5793L72.1077 4.77515H74.9056L77.1764 10.2659C77.2605 10.4692 77.5487 10.4688 77.6322 10.2653L79.8859 4.77515H82.7025L76.8455 18Z" fill="#0C0A09"/>
<path d="M68.4037 14.1015V7.01346H66.5198V4.77512H68.4037V3.56269C68.4037 2.45596 68.7395 1.58549 69.411 0.951294C70.0825 0.317098 70.9343 0 71.9664 0C72.6006 0 73.1415 0.0683936 73.5892 0.205181V2.46217C73.2908 2.35026 72.9426 2.2943 72.5446 2.2943C71.9851 2.2943 71.5809 2.41865 71.3322 2.66735C71.0835 2.90362 70.9591 3.30777 70.9591 3.87979V4.77512H73.5892V7.01346H70.9591V14.1015H68.4037Z" fill="#0C0A09"/>
<path d="M64.2336 3.24559C63.7984 3.24559 63.4191 3.09015 63.0958 2.77927C62.7725 2.45596 62.6108 2.07046 62.6108 1.6228C62.6108 1.17513 62.7725 0.795854 63.0958 0.484974C63.4191 0.161658 63.7984 0 64.2336 0C64.6937 0 65.0792 0.161658 65.3901 0.484974C65.7134 0.795854 65.8751 1.17513 65.8751 1.6228C65.8751 2.07046 65.7134 2.45596 65.3901 2.77927C65.0792 3.09015 64.6937 3.24559 64.2336 3.24559ZM62.9652 14.1015V4.77512H65.5207V14.1015H62.9652Z" fill="#0C0A09"/>
<path d="M58.5156 14.1014V0.111816H61.0711V14.1014H58.5156Z" fill="#0C0A09"/>
<path d="M55.6288 14.2134C54.5842 14.2134 53.7262 13.9274 53.0547 13.3554C52.3956 12.771 52.0661 11.9316 52.0661 10.8373V7.01346H50.1821V4.77512H52.0661V2.18237H54.6215V4.77512H57.2515V7.01346H54.6215V10.3337C54.6215 10.9057 54.7459 11.316 54.9946 11.5647C55.2433 11.801 55.6474 11.9191 56.207 11.9191C56.6049 11.9191 56.9531 11.8632 57.2515 11.7513V14.0083C56.8039 14.1451 56.2629 14.2134 55.6288 14.2134Z" fill="#0C0A09"/>
<path d="M40.6177 14.1017V4.77525H43.1731V5.43633C43.1731 5.55783 43.3389 5.61183 43.4201 5.52139C43.989 4.88718 44.7958 4.57007 45.8405 4.57007C46.9596 4.57007 47.8363 4.94313 48.4705 5.68924C49.1171 6.42292 49.4405 7.4053 49.4405 8.63638V14.1017H46.885V9.0654C46.885 8.38146 46.742 7.85297 46.456 7.47991C46.17 7.09442 45.7659 6.90167 45.2436 6.90167C44.6218 6.90167 44.1182 7.12551 43.7327 7.57317C43.3596 8.02084 43.1731 8.67991 43.1731 9.55037V14.1017H40.6177Z" fill="#0C0A09"/>
<path d="M37.4363 3.24559C37.001 3.24559 36.6218 3.09015 36.2985 2.77927C35.9751 2.45596 35.8135 2.07046 35.8135 1.6228C35.8135 1.17513 35.9751 0.795854 36.2985 0.484974C36.6218 0.161658 37.001 0 37.4363 0C37.8964 0 38.2819 0.161658 38.5927 0.484974C38.9161 0.795854 39.0777 1.17513 39.0777 1.6228C39.0777 2.07046 38.9161 2.45596 38.5927 2.77927C38.2819 3.09015 37.8964 3.24559 37.4363 3.24559ZM36.1679 14.1015V4.77512H38.7233V14.1015H36.1679Z" fill="#0C0A09"/>
<path d="M31.8297 14.1017V9.12136C31.8297 7.64157 31.3447 6.90167 30.3747 6.90167C29.8151 6.90167 29.3675 7.11307 29.0317 7.53587C28.7084 7.95867 28.5343 8.58664 28.5094 9.4198V14.1017H25.954V9.12136C25.954 7.64157 25.469 6.90167 24.4991 6.90167C23.9271 6.90167 23.4732 7.12551 23.1374 7.57317C22.8017 8.02084 22.6338 8.67991 22.6338 9.55037V14.1017H20.0784V4.77525H22.6338V5.4434C22.6338 5.56427 22.7967 5.61771 22.8767 5.52708C23.4397 4.88907 24.1857 4.57007 25.1146 4.57007C26.341 4.57007 27.2657 5.07469 27.8887 6.08392C27.9408 6.16825 28.0683 6.16687 28.1202 6.08241C28.3891 5.64448 28.7613 5.29581 29.2369 5.03639C29.7841 4.72551 30.3374 4.57007 30.897 4.57007C32.0037 4.57007 32.8618 4.93691 33.4711 5.67059C34.0804 6.40426 34.3851 7.41152 34.3851 8.69234V14.1017H31.8297Z" fill="#0C0A09"/>
<path d="M16.305 6.13856V1.08616C16.305 0.543984 15.8652 0.111816 15.3311 0.111816H10.281C9.48777 0.111816 8.70238 0.268962 7.97197 0.567549C7.24155 0.873994 6.57397 1.31402 6.01634 1.87977L5.97707 1.91906C5.2388 2.66552 4.71259 3.59271 4.44556 4.61419C4.92465 4.48847 5.41942 4.42561 5.91422 4.41775C7.23368 4.40204 8.5296 4.82635 9.58203 5.61996C10.5324 6.32715 11.2549 7.30148 11.6476 8.42511C12.056 9.56446 12.1031 10.806 11.7968 11.9767C12.81 11.7096 13.7446 11.1831 14.4907 10.4445L14.53 10.4052C15.0876 9.84733 15.5353 9.17944 15.8416 8.44869C16.1479 7.71793 16.2971 6.93218 16.2971 6.13856H16.305Z" fill="#2563EB"/>
<path d="M4.29481 6.05311C4.30264 4.50318 4.92076 3.01587 6.00834 1.9043L1.80665 6.1079C1.791 6.12356 1.77534 6.13139 1.7597 6.14704C0.734705 7.16468 0.116597 8.52675 0.0148805 9.96709C-0.0790116 11.3135 0.273076 12.6442 1.02421 13.7558C1.09586 13.8618 1.29026 13.8967 1.39981 13.795L3.97401 11.2274C4.77992 10.4211 5.0303 9.22343 4.64691 8.151C4.40436 7.48562 4.28699 6.77328 4.29481 6.05311Z" fill="#1E40AF"/>
<path d="M14.5056 10.4058C13.6997 11.1964 12.6904 11.7443 11.5949 11.987C10.4917 12.2297 9.34938 12.1592 8.28526 11.7835C8.28526 11.7835 8.27742 11.7835 8.2696 11.7835C7.19766 11.3999 6.00056 11.6504 5.19465 12.4489L2.62041 15.0164C2.51087 15.126 2.52651 15.3061 2.65953 15.3922C3.77059 16.1358 5.10076 16.4959 6.44654 16.402C7.88622 16.3002 9.23982 15.6818 10.2648 14.6563L10.3039 14.6172L14.5056 10.4136V10.4058Z" fill="#1E40AF"/>
<path d="M89.5063 10.7695V8.65137C89.7993 8.23535 90.0894 7.83984 90.3765 7.46484C90.6636 7.08984 90.9595 6.71777 91.2642 6.34863C91.5747 5.97949 91.9028 5.60156 92.2485 5.21484L95.9312 1.13672H98.4712L92.8989 7.2627L92.7671 7.23633L89.5063 10.7695ZM88.0913 14.2324V1.13672H90.0952V5.3291L90.0688 8.31738L90.0952 9.29297V14.2324H88.0913ZM96.1597 14.2324L91.6948 7.80762L92.9429 6.27832L98.5151 14.2324H96.1597ZM101.741 8.51953V14.2324H99.8163V4.5293H101.662L101.671 6.91113H101.425C101.712 6.04395 102.128 5.4082 102.673 5.00391C103.218 4.59375 103.877 4.38867 104.65 4.38867C105.312 4.38867 105.892 4.5293 106.39 4.81055C106.894 5.0918 107.287 5.50781 107.568 6.05859C107.849 6.60352 107.99 7.28027 107.99 8.08887V14.2324H106.074V8.32617C106.074 7.61133 105.89 7.05762 105.52 6.66504C105.157 6.2666 104.656 6.06738 104.017 6.06738C103.584 6.06738 103.194 6.16113 102.848 6.34863C102.503 6.53613 102.23 6.81152 102.031 7.1748C101.838 7.53809 101.741 7.98633 101.741 8.51953ZM114.231 14.4346C113.317 14.4346 112.517 14.2266 111.831 13.8105C111.152 13.3887 110.621 12.8027 110.24 12.0527C109.865 11.2969 109.678 10.4209 109.678 9.4248C109.678 8.41699 109.865 7.53516 110.24 6.7793C110.621 6.02344 111.152 5.4375 111.831 5.02148C112.517 4.59961 113.317 4.38867 114.231 4.38867C115.151 4.38867 115.95 4.59961 116.63 5.02148C117.316 5.4375 117.846 6.02344 118.221 6.7793C118.602 7.53516 118.792 8.41699 118.792 9.4248C118.792 10.4209 118.602 11.2969 118.221 12.0527C117.846 12.8027 117.316 13.3887 116.63 13.8105C115.95 14.2266 115.151 14.4346 114.231 14.4346ZM114.231 12.8086C114.811 12.8086 115.294 12.6592 115.681 12.3604C116.073 12.0557 116.366 11.6484 116.56 11.1387C116.753 10.623 116.85 10.0518 116.85 9.4248C116.85 8.78613 116.753 8.21191 116.56 7.70215C116.366 7.18652 116.073 6.77637 115.681 6.47168C115.294 6.16699 114.811 6.01465 114.231 6.01465C113.651 6.01465 113.167 6.16699 112.78 6.47168C112.4 6.77637 112.113 7.18652 111.919 7.70215C111.726 8.21191 111.629 8.78613 111.629 9.4248C111.629 10.0518 111.726 10.623 111.919 11.1387C112.113 11.6484 112.4 12.0557 112.78 12.3604C113.167 12.6592 113.651 12.8086 114.231 12.8086ZM122.326 14.2324L119.39 4.5293H121.412L122.484 8.53711C122.648 9.15234 122.818 9.82617 122.994 10.5586C123.17 11.291 123.342 12.0938 123.512 12.9668H123.24C123.404 12.1172 123.577 11.3262 123.758 10.5938C123.94 9.86133 124.113 9.17578 124.277 8.53711L125.367 4.5293H127.256L128.329 8.53711C128.493 9.16406 128.663 9.84375 128.838 10.5762C129.014 11.3086 129.187 12.1055 129.357 12.9668H129.076C129.246 12.1113 129.419 11.3174 129.594 10.585C129.77 9.85254 129.94 9.16992 130.104 8.53711L131.185 4.5293H133.215L130.271 14.2324H128.337L127.133 10.0488C127.01 9.62695 126.89 9.19043 126.773 8.73926C126.662 8.28223 126.55 7.81641 126.439 7.3418C126.328 6.86719 126.216 6.40137 126.105 5.94434H126.501C126.389 6.40137 126.275 6.86719 126.158 7.3418C126.046 7.81641 125.932 8.28223 125.815 8.73926C125.704 9.19629 125.587 9.63281 125.463 10.0488L124.259 14.2324H122.326ZM136.468 1.13672V14.2324H134.543V1.13672H136.468ZM142.779 14.4346C141.818 14.4346 140.992 14.2266 140.3 13.8105C139.609 13.3945 139.075 12.8115 138.7 12.0615C138.331 11.3115 138.147 10.4355 138.147 9.43359C138.147 8.44336 138.331 7.57031 138.7 6.81445C139.07 6.05273 139.591 5.45801 140.265 5.03027C140.939 4.60254 141.724 4.38867 142.62 4.38867C143.206 4.38867 143.76 4.48535 144.282 4.67871C144.809 4.87207 145.275 5.1709 145.679 5.5752C146.089 5.97363 146.411 6.4834 146.646 7.10449C146.88 7.71973 146.997 8.45215 146.997 9.30176V9.95215H139.166V8.51074H146.004L145.125 8.97656C145.125 8.38477 145.029 7.86328 144.835 7.41211C144.648 6.95508 144.367 6.60059 143.992 6.34863C143.622 6.09668 143.168 5.9707 142.629 5.9707C142.09 5.9707 141.627 6.09961 141.241 6.35742C140.86 6.61523 140.567 6.95801 140.362 7.38574C140.157 7.81348 140.054 8.29102 140.054 8.81836V9.75879C140.054 10.4092 140.165 10.9658 140.388 11.4287C140.617 11.8916 140.936 12.2461 141.346 12.4922C141.762 12.7324 142.245 12.8525 142.796 12.8525C143.165 12.8525 143.499 12.7998 143.798 12.6943C144.097 12.583 144.352 12.4219 144.563 12.2109C144.774 12 144.932 11.7422 145.037 11.4375L146.848 11.7715C146.701 12.2988 146.441 12.7646 146.066 13.1689C145.691 13.5674 145.222 13.8779 144.659 14.1006C144.103 14.3232 143.476 14.4346 142.779 14.4346ZM152.28 14.4258C151.483 14.4258 150.777 14.2236 150.162 13.8193C149.547 13.4092 149.063 12.8291 148.712 12.0791C148.366 11.3291 148.193 10.4355 148.193 9.39844C148.193 8.35547 148.369 7.46191 148.72 6.71777C149.072 5.96777 149.555 5.39355 150.171 4.99512C150.792 4.59082 151.495 4.38867 152.28 4.38867C152.842 4.38867 153.308 4.48242 153.677 4.66992C154.052 4.85156 154.351 5.07129 154.574 5.3291C154.802 5.58691 154.981 5.83301 155.11 6.06738H155.207V1.13672H157.123V14.2324H155.251V12.7207H155.119C154.99 12.9668 154.808 13.2217 154.574 13.4854C154.34 13.7432 154.038 13.9658 153.669 14.1533C153.299 14.335 152.837 14.4258 152.28 14.4258ZM152.693 12.791C153.238 12.791 153.701 12.6475 154.082 12.3604C154.463 12.0732 154.753 11.6748 154.952 11.165C155.151 10.6553 155.251 10.0635 155.251 9.38965C155.251 8.70996 155.151 8.12109 154.952 7.62305C154.758 7.11914 154.471 6.72656 154.09 6.44531C153.71 6.16406 153.244 6.02344 152.693 6.02344C152.142 6.02344 151.676 6.16699 151.296 6.4541C150.921 6.74121 150.633 7.13672 150.434 7.64062C150.241 8.14453 150.144 8.72754 150.144 9.38965C150.144 10.0459 150.241 10.6318 150.434 11.1475C150.633 11.6572 150.923 12.0586 151.304 12.3516C151.691 12.6445 152.154 12.791 152.693 12.791ZM163.355 18.0996C162.593 18.0996 161.931 18 161.368 17.8008C160.812 17.6016 160.352 17.3262 159.988 16.9746C159.631 16.6289 159.373 16.2363 159.215 15.7969L160.876 15.1992C160.987 15.4102 161.143 15.6182 161.342 15.8232C161.541 16.0342 161.802 16.207 162.124 16.3418C162.446 16.4824 162.854 16.5527 163.346 16.5527C164.096 16.5527 164.699 16.3682 165.156 15.999C165.613 15.6357 165.842 15.0791 165.842 14.3291V12.5186H165.71C165.569 12.7646 165.385 13.0137 165.156 13.2656C164.934 13.5117 164.638 13.7197 164.269 13.8896C163.899 14.0596 163.437 14.1445 162.88 14.1445C162.106 14.1445 161.409 13.957 160.788 13.582C160.173 13.207 159.687 12.665 159.329 11.9561C158.978 11.2412 158.802 10.3711 158.802 9.3457C158.802 8.32617 158.978 7.44727 159.329 6.70898C159.687 5.96484 160.173 5.39355 160.788 4.99512C161.409 4.59082 162.112 4.38867 162.897 4.38867C163.46 4.38867 163.926 4.47949 164.295 4.66113C164.67 4.84277 164.975 5.06543 165.209 5.3291C165.443 5.59277 165.628 5.84473 165.763 6.08496H165.868V4.5293H167.74V14.3203C167.74 15.1934 167.547 15.9082 167.16 16.4648C166.773 17.0215 166.249 17.4316 165.587 17.6953C164.925 17.9648 164.181 18.0996 163.355 18.0996ZM163.319 12.5361C163.864 12.5361 164.327 12.4072 164.708 12.1494C165.089 11.8916 165.379 11.5225 165.578 11.042C165.777 10.5615 165.877 9.9873 165.877 9.31934C165.877 8.66309 165.777 8.08887 165.578 7.59668C165.379 7.10449 165.089 6.7207 164.708 6.44531C164.327 6.16406 163.864 6.02344 163.319 6.02344C162.769 6.02344 162.3 6.16699 161.913 6.4541C161.532 6.73535 161.242 7.125 161.043 7.62305C160.85 8.11523 160.753 8.68066 160.753 9.31934C160.753 9.97559 160.853 10.5439 161.052 11.0244C161.251 11.5049 161.541 11.877 161.922 12.1406C162.303 12.4043 162.769 12.5361 163.319 12.5361ZM174.06 14.4346C173.099 14.4346 172.273 14.2266 171.581 13.8105C170.89 13.3945 170.357 12.8115 169.982 12.0615C169.613 11.3115 169.428 10.4355 169.428 9.43359C169.428 8.44336 169.613 7.57031 169.982 6.81445C170.351 6.05273 170.872 5.45801 171.546 5.03027C172.22 4.60254 173.005 4.38867 173.902 4.38867C174.488 4.38867 175.041 4.48535 175.563 4.67871C176.09 4.87207 176.556 5.1709 176.96 5.5752C177.37 5.97363 177.693 6.4834 177.927 7.10449C178.162 7.71973 178.279 8.45215 178.279 9.30176V9.95215H170.448V8.51074H177.286L176.407 8.97656C176.407 8.38477 176.31 7.86328 176.117 7.41211C175.929 6.95508 175.648 6.60059 175.273 6.34863C174.904 6.09668 174.45 5.9707 173.911 5.9707C173.371 5.9707 172.909 6.09961 172.522 6.35742C172.141 6.61523 171.848 6.95801 171.643 7.38574C171.438 7.81348 171.335 8.29102 171.335 8.81836V9.75879C171.335 10.4092 171.447 10.9658 171.669 11.4287C171.898 11.8916 172.217 12.2461 172.627 12.4922C173.043 12.7324 173.527 12.8525 174.078 12.8525C174.447 12.8525 174.781 12.7998 175.079 12.6943C175.378 12.583 175.633 12.4219 175.844 12.2109C176.055 12 176.213 11.7422 176.319 11.4375L178.129 11.7715C177.983 12.2988 177.722 12.7646 177.347 13.1689C176.972 13.5674 176.503 13.8779 175.941 14.1006C175.384 14.3232 174.757 14.4346 174.06 14.4346Z" fill="#78716C"/>
</svg>
